<?xml version="1.0" encoding="UTF-8"?>
<svg xmlns="http://www.w3.org/2000/svg" xmlns:xlink="http://www.w3.org/1999/xlink" width="125pt" height="125pt" viewBox="0 0 125 125" version="1.1">
<defs>
<clipPath id="clip1">
  <path d="M 0 0.273438 L 0 125 L 124.726562 125 L 124.726562 0.273438 "/>
</clipPath>
</defs>
<g id="surface0">
<g clip-path="url(#clip1)" clip-rule="nonzero">
<path style=" stroke:none;fill-rule:nonzero;fill:rgb(12.654307%,63.819333%,89.262226%);fill-opacity:1;" d="M 24.632812 32.082031 L 23.871094 32.082031 C 23.816406 32.082031 23.765625 32.121094 23.765625 32.183594 L 23.765625 33.164062 C 23.765625 33.226562 23.808594 33.269531 23.871094 33.269531 L 24.632812 33.269531 C 24.683594 33.269531 24.738281 33.226562 24.738281 33.164062 L 24.738281 32.183594 C 24.738281 32.121094 24.691406 32.082031 24.632812 32.082031 "/>
<path style=" stroke:none;fill-rule:nonzero;fill:rgb(12.654307%,63.819333%,89.262226%);fill-opacity:1;" d="M 35.566406 32.082031 L 34.804688 32.082031 C 34.75 32.082031 34.699219 32.121094 34.699219 32.183594 L 34.699219 33.164062 C 34.699219 33.226562 34.742188 33.269531 34.804688 33.269531 L 35.566406 33.269531 C 35.617188 33.269531 35.671875 33.226562 35.671875 33.164062 L 35.671875 32.183594 C 35.671875 32.121094 35.625 32.082031 35.566406 32.082031 "/>
<path style=" stroke:none;fill-rule:nonzero;fill:rgb(12.654307%,63.819333%,89.262226%);fill-opacity:1;" d="M 13.699219 32.082031 L 12.933594 32.082031 C 12.878906 32.082031 12.832031 32.121094 12.832031 32.183594 L 12.832031 33.164062 C 12.832031 33.226562 12.871094 33.269531 12.933594 33.269531 L 13.699219 33.269531 C 13.746094 33.269531 13.804688 33.226562 13.804688 33.164062 L 13.804688 32.183594 C 13.804688 32.121094 13.753906 32.082031 13.699219 32.082031 "/>
<path style=" stroke:none;fill-rule:nonzero;fill:rgb(13.730068%,12.159915%,12.54902%);fill-opacity:1;" d="M 51.703125 30.25 L 51.703125 29.425781 C 51.703125 29.300781 51.605469 29.214844 51.492188 29.214844 L 48.285156 29.214844 C 48.410156 28.195312 48.972656 27.746094 50.148438 27.746094 L 52.121094 27.746094 C 52.246094 27.746094 52.332031 27.632812 52.332031 27.523438 L 52.332031 26.710938 C 52.332031 26.582031 52.234375 26.5 52.121094 26.5 L 49.921875 26.5 C 48.0625 26.5 46.96875 27.464844 46.832031 29.214844 L 45.234375 29.214844 C 45.121094 29.214844 45.050781 29.300781 45.050781 29.425781 L 45.050781 30.25 C 45.050781 30.378906 45.121094 30.460938 45.246094 30.460938 L 46.800781 30.460938 L 46.800781 36.285156 C 46.800781 36.410156 46.902344 36.496094 47.011719 36.496094 L 48.0625 36.496094 C 48.1875 36.496094 48.273438 36.410156 48.273438 36.285156 L 48.273438 30.460938 L 51.492188 30.460938 C 51.617188 30.460938 51.703125 30.363281 51.703125 30.25 "/>
<path style=" stroke:none;fill-rule:nonzero;fill:rgb(12.654307%,63.819333%,89.262226%);fill-opacity:1;" d="M 56.671875 33.269531 L 57.433594 33.269531 C 57.484375 33.269531 57.539062 33.226562 57.539062 33.164062 L 57.539062 32.183594 C 57.539062 32.121094 57.492188 32.082031 57.433594 32.082031 L 56.671875 32.082031 C 56.617188 32.082031 56.570312 32.121094 56.570312 32.183594 L 56.570312 33.164062 C 56.570312 33.226562 56.609375 33.269531 56.671875 33.269531 "/>
<path style=" stroke:none;fill-rule:nonzero;fill:rgb(13.730068%,12.159915%,12.54902%);fill-opacity:1;" d="M 66.980469 33.261719 C 66.980469 34.59375 66.4375 35.152344 65.105469 35.152344 L 64.703125 35.152344 C 63.386719 35.152344 62.824219 34.59375 62.824219 33.261719 L 62.824219 32.226562 C 62.824219 30.910156 63.398438 30.347656 64.703125 30.347656 L 65.105469 30.347656 C 66.4375 30.347656 66.980469 30.910156 66.980469 32.226562 L 66.980469 33.261719 Z M 68.03125 37.222656 C 68.03125 36.636719 67.792969 36.144531 67.417969 35.78125 C 68.101562 35.25 68.453125 34.394531 68.453125 33.261719 L 68.453125 32.226562 C 68.453125 30.210938 67.347656 29.101562 65.316406 29.101562 L 64.488281 29.101562 C 62.476562 29.101562 61.355469 30.210938 61.355469 32.226562 L 61.355469 33.261719 C 61.355469 35.289062 62.488281 36.398438 64.488281 36.398438 L 65.527344 36.398438 C 65.710938 36.398438 66.578125 36.441406 66.578125 37.238281 C 66.578125 38.023438 65.695312 38.078125 65.527344 38.078125 L 64.703125 38.078125 C 64.53125 38.078125 63.804688 38.023438 63.664062 37.433594 C 63.652344 37.320312 63.582031 37.222656 63.480469 37.222656 L 62.40625 37.222656 C 62.292969 37.222656 62.210938 37.335938 62.222656 37.449219 C 62.320312 38.539062 63.230469 39.308594 64.488281 39.308594 L 65.734375 39.308594 C 67.066406 39.308594 68.03125 38.414062 68.03125 37.222656 "/>
<path style=" stroke:none;fill-rule:nonzero;fill:rgb(12.654307%,63.819333%,89.262226%);fill-opacity:1;" d="M 73.074219 33.269531 L 73.835938 33.269531 C 73.886719 33.269531 73.941406 33.226562 73.941406 33.164062 L 73.941406 32.183594 C 73.941406 32.121094 73.894531 32.082031 73.835938 32.082031 L 73.074219 32.082031 C 73.019531 32.082031 72.96875 32.121094 72.96875 32.183594 L 72.96875 33.164062 C 72.96875 33.226562 73.011719 33.269531 73.074219 33.269531 "/>
<path style=" stroke:none;fill-rule:nonzero;fill:rgb(13.730068%,12.159915%,12.54902%);fill-opacity:1;" d="M 84.8125 34.324219 C 84.839844 34.199219 84.726562 34.113281 84.601562 34.113281 L 83.535156 34.113281 C 83.410156 34.113281 83.367188 34.199219 83.328125 34.324219 C 83.117188 35.027344 82.542969 35.359375 81.566406 35.359375 L 81.144531 35.359375 C 79.828125 35.359375 79.269531 34.800781 79.269531 33.472656 L 79.269531 32.226562 C 79.269531 30.910156 79.828125 30.347656 81.144531 30.347656 L 81.566406 30.347656 C 82.542969 30.347656 83.117188 30.671875 83.328125 31.386719 C 83.367188 31.511719 83.410156 31.59375 83.535156 31.59375 L 84.601562 31.59375 C 84.726562 31.59375 84.839844 31.511719 84.8125 31.386719 C 84.542969 29.914062 83.480469 29.101562 81.773438 29.101562 L 80.933594 29.101562 C 78.917969 29.101562 77.796875 30.210938 77.796875 32.226562 L 77.796875 33.472656 C 77.796875 35.5 78.917969 36.605469 80.933594 36.605469 L 81.773438 36.605469 C 83.480469 36.605469 84.542969 35.792969 84.8125 34.324219 "/>
<path style=" stroke:none;fill-rule:nonzero;fill:rgb(12.654307%,63.819333%,89.262226%);fill-opacity:1;" d="M 89.472656 33.269531 L 90.234375 33.269531 C 90.285156 33.269531 90.34375 33.226562 90.34375 33.164062 L 90.34375 32.183594 C 90.34375 32.121094 90.292969 32.082031 90.234375 32.082031 L 89.472656 32.082031 C 89.417969 32.082031 89.367188 32.121094 89.367188 32.183594 L 89.367188 33.164062 C 89.367188 33.226562 89.410156 33.269531 89.472656 33.269531 "/>
<path style=" stroke:none;fill-rule:nonzero;fill:rgb(13.730068%,12.159915%,12.54902%);fill-opacity:1;" d="M 94.367188 36.496094 L 101.046875 36.496094 C 101.144531 36.496094 101.257812 36.410156 101.257812 36.285156 L 101.257812 35.460938 C 101.257812 35.347656 101.144531 35.25 101.046875 35.25 L 96.007812 35.25 L 100.835938 30.9375 C 100.949219 30.824219 101.046875 30.726562 101.046875 30.613281 L 101.046875 29.425781 C 101.046875 29.300781 100.933594 29.214844 100.835938 29.214844 L 94.59375 29.214844 C 94.464844 29.214844 94.367188 29.300781 94.367188 29.425781 L 94.367188 30.25 C 94.367188 30.363281 94.464844 30.460938 94.578125 30.460938 L 99.210938 30.460938 L 94.382812 34.773438 C 94.269531 34.886719 94.15625 34.96875 94.15625 35.09375 L 94.15625 36.285156 C 94.15625 36.410156 94.257812 36.496094 94.367188 36.496094 "/>
<path style=" stroke:none;fill-rule:nonzero;fill:rgb(12.654307%,63.819333%,89.262226%);fill-opacity:1;" d="M 101.171875 42.082031 L 100.410156 42.082031 C 100.351562 42.082031 100.304688 42.121094 100.304688 42.183594 L 100.304688 43.164062 C 100.304688 43.226562 100.347656 43.269531 100.410156 43.269531 L 101.171875 43.269531 C 101.222656 43.269531 101.277344 43.226562 101.277344 43.164062 L 101.277344 42.183594 C 101.277344 42.121094 101.226562 42.082031 101.171875 42.082031 "/>
<path style=" stroke:none;fill-rule:nonzero;fill:rgb(13.730068%,12.159915%,12.54902%);fill-opacity:1;" d="M 53.398438 47.496094 L 52.296875 47.496094 C 51.367188 47.496094 50.820312 47.980469 50.75 48.855469 L 49.953125 48.855469 C 49.898438 48.855469 49.859375 48.898438 49.859375 48.960938 L 49.859375 49.371094 C 49.859375 49.4375 49.898438 49.476562 49.960938 49.476562 L 50.734375 49.476562 L 50.734375 52.390625 C 50.734375 52.453125 50.785156 52.496094 50.839844 52.496094 L 51.367188 52.496094 C 51.429688 52.496094 51.46875 52.453125 51.46875 52.390625 L 51.46875 49.476562 L 53.082031 49.476562 C 53.144531 49.476562 53.1875 49.429688 53.1875 49.371094 L 53.1875 48.960938 C 53.1875 48.898438 53.136719 48.855469 53.082031 48.855469 L 51.476562 48.855469 C 51.539062 48.34375 51.820312 48.121094 52.410156 48.121094 L 53.398438 48.121094 C 53.460938 48.121094 53.5 48.066406 53.5 48.007812 L 53.5 47.601562 C 53.5 47.539062 53.453125 47.496094 53.398438 47.496094 "/>
<path style=" stroke:none;fill-rule:nonzero;fill:rgb(13.730068%,12.159915%,12.54902%);fill-opacity:1;" d="M 58.617188 48.855469 L 58.09375 48.855469 C 58.03125 48.855469 57.988281 48.898438 57.988281 48.960938 L 57.988281 50.984375 C 57.988281 51.648438 57.710938 51.925781 57.050781 51.925781 C 56.394531 51.925781 56.113281 51.648438 56.113281 50.984375 L 56.113281 48.960938 C 56.113281 48.898438 56.070312 48.855469 56.007812 48.855469 L 55.480469 48.855469 C 55.433594 48.855469 55.378906 48.898438 55.378906 48.960938 L 55.378906 50.984375 C 55.378906 51.996094 55.9375 52.550781 56.945312 52.550781 L 57.050781 52.550781 C 57.429688 52.550781 57.742188 52.46875 57.988281 52.320312 L 57.988281 52.390625 C 57.988281 52.453125 58.03125 52.496094 58.09375 52.496094 L 58.617188 52.496094 C 58.667969 52.496094 58.722656 52.453125 58.722656 52.390625 L 58.722656 48.960938 C 58.722656 48.898438 58.667969 48.855469 58.617188 48.855469 "/>
<path style=" stroke:none;fill-rule:nonzero;fill:rgb(13.730068%,12.159915%,12.54902%);fill-opacity:1;" d="M 60.941406 52.496094 L 61.46875 52.496094 C 61.523438 52.496094 61.574219 52.453125 61.574219 52.390625 L 61.574219 50.359375 C 61.574219 49.703125 61.851562 49.421875 62.511719 49.421875 L 62.539062 49.421875 C 63.191406 49.421875 63.46875 49.703125 63.46875 50.359375 L 63.46875 52.390625 C 63.46875 52.453125 63.519531 52.496094 63.574219 52.496094 L 64.09375 52.496094 C 64.15625 52.496094 64.207031 52.453125 64.207031 52.390625 L 64.207031 50.359375 C 64.207031 49.351562 63.644531 48.796875 62.636719 48.796875 L 62.511719 48.796875 C 62.132812 48.796875 61.816406 48.882812 61.574219 49.03125 L 61.574219 48.960938 C 61.574219 48.898438 61.515625 48.855469 61.46875 48.855469 L 60.941406 48.855469 C 60.878906 48.855469 60.839844 48.898438 60.839844 48.960938 L 60.839844 52.390625 C 60.839844 52.453125 60.878906 52.496094 60.941406 52.496094 "/>
<path style=" stroke:none;fill-rule:nonzero;fill:rgb(13.730068%,12.159915%,12.54902%);fill-opacity:1;" d="M 67.800781 48.796875 C 66.792969 48.796875 66.234375 49.351562 66.234375 50.359375 L 66.234375 50.984375 C 66.234375 51.996094 66.792969 52.550781 67.800781 52.550781 L 68.222656 52.550781 C 69.078125 52.550781 69.605469 52.144531 69.738281 51.410156 C 69.757812 51.347656 69.699219 51.304688 69.636719 51.304688 L 69.101562 51.304688 C 69.039062 51.304688 69.019531 51.347656 68.996094 51.410156 C 68.894531 51.761719 68.605469 51.925781 68.117188 51.925781 L 67.90625 51.925781 C 67.246094 51.925781 66.96875 51.648438 66.96875 50.984375 L 66.96875 50.359375 C 66.96875 49.703125 67.246094 49.421875 67.90625 49.421875 L 68.117188 49.421875 C 68.605469 49.421875 68.894531 49.582031 68.996094 49.941406 C 69.019531 50.003906 69.039062 50.042969 69.101562 50.042969 L 69.636719 50.042969 C 69.699219 50.042969 69.757812 50.003906 69.738281 49.941406 C 69.605469 49.207031 69.078125 48.796875 68.222656 48.796875 L 67.800781 48.796875 "/>
<path style=" stroke:none;fill-rule:nonzero;fill:rgb(13.730068%,12.159915%,12.54902%);fill-opacity:1;" d="M 71.835938 49.527344 L 72.507812 49.527344 L 72.507812 50.941406 C 72.507812 51.941406 73.058594 52.496094 74.066406 52.496094 L 74.855469 52.496094 C 74.914062 52.496094 74.964844 52.453125 74.964844 52.390625 L 74.964844 51.976562 C 74.964844 51.914062 74.914062 51.871094 74.855469 51.871094 L 74.179688 51.871094 C 73.523438 51.871094 73.238281 51.59375 73.238281 50.933594 L 73.238281 49.527344 L 75.070312 49.527344 C 75.121094 49.527344 75.164062 49.484375 75.164062 49.421875 L 75.164062 49.003906 C 75.164062 48.953125 75.121094 48.90625 75.070312 48.90625 L 73.238281 48.90625 L 73.238281 47.601562 C 73.238281 47.539062 73.199219 47.496094 73.136719 47.496094 L 72.609375 47.496094 C 72.546875 47.496094 72.507812 47.546875 72.507812 47.601562 L 72.507812 48.910156 L 71.835938 48.910156 C 71.777344 48.910156 71.726562 48.953125 71.726562 49.003906 L 71.726562 49.421875 C 71.726562 49.484375 71.777344 49.527344 71.835938 49.527344 "/>
<path style=" stroke:none;fill-rule:nonzero;fill:rgb(13.730068%,12.159915%,12.54902%);fill-opacity:1;" d="M 78.664062 48.230469 L 79.191406 48.230469 C 79.253906 48.230469 79.292969 48.183594 79.292969 48.128906 L 79.292969 47.601562 C 79.292969 47.539062 79.246094 47.496094 79.191406 47.496094 L 78.664062 47.496094 C 78.609375 47.496094 78.558594 47.546875 78.558594 47.601562 L 78.558594 48.128906 C 78.558594 48.183594 78.609375 48.230469 78.664062 48.230469 "/>
<path style=" stroke:none;fill-rule:nonzero;fill:rgb(13.730068%,12.159915%,12.54902%);fill-opacity:1;" d="M 77.363281 52.496094 L 80.492188 52.496094 C 80.554688 52.496094 80.597656 52.441406 80.597656 52.390625 L 80.597656 51.976562 C 80.597656 51.914062 80.554688 51.871094 80.492188 51.871094 L 79.292969 51.871094 L 79.292969 48.960938 C 79.292969 48.898438 79.246094 48.855469 79.191406 48.855469 L 78.664062 48.855469 C 78.609375 48.855469 78.558594 48.898438 78.558594 48.960938 L 78.558594 51.871094 L 77.355469 51.871094 C 77.304688 51.871094 77.253906 51.921875 77.253906 51.976562 L 77.253906 52.390625 C 77.253906 52.445312 77.304688 52.496094 77.363281 52.496094 "/>
<path style=" stroke:none;fill-rule:nonzero;fill:rgb(13.730068%,12.159915%,12.54902%);fill-opacity:1;" d="M 85.425781 50.359375 L 85.425781 50.984375 C 85.425781 51.648438 85.148438 51.925781 84.488281 51.925781 L 84.28125 51.925781 C 83.621094 51.925781 83.34375 51.648438 83.34375 50.984375 L 83.34375 50.359375 C 83.34375 49.703125 83.621094 49.421875 84.28125 49.421875 L 84.488281 49.421875 C 85.148438 49.421875 85.425781 49.703125 85.425781 50.359375 Z M 84.167969 48.796875 C 83.160156 48.796875 82.605469 49.351562 82.605469 50.359375 L 82.605469 50.984375 C 82.605469 51.996094 83.160156 52.550781 84.167969 52.550781 L 84.59375 52.550781 C 85.609375 52.550781 86.164062 51.996094 86.164062 50.984375 L 86.164062 50.359375 C 86.164062 49.351562 85.609375 48.796875 84.59375 48.796875 L 84.167969 48.796875 "/>
<path style=" stroke:none;fill-rule:nonzero;fill:rgb(13.730068%,12.159915%,12.54902%);fill-opacity:1;" d="M 88.277344 52.496094 L 88.800781 52.496094 C 88.855469 52.496094 88.90625 52.453125 88.90625 52.390625 L 88.90625 50.359375 C 88.90625 49.703125 89.1875 49.421875 89.84375 49.421875 L 89.871094 49.421875 C 90.523438 49.421875 90.804688 49.703125 90.804688 50.359375 L 90.804688 52.390625 C 90.804688 52.453125 90.851562 52.496094 90.90625 52.496094 L 91.425781 52.496094 C 91.488281 52.496094 91.539062 52.453125 91.539062 52.390625 L 91.539062 50.359375 C 91.539062 49.351562 90.976562 48.796875 89.96875 48.796875 L 89.84375 48.796875 C 89.46875 48.796875 89.152344 48.882812 88.90625 49.03125 L 88.90625 48.960938 C 88.90625 48.898438 88.851562 48.855469 88.800781 48.855469 L 88.277344 48.855469 C 88.214844 48.855469 88.171875 48.898438 88.171875 48.960938 L 88.171875 52.390625 C 88.171875 52.453125 88.214844 52.496094 88.277344 52.496094 "/>
<path style=" stroke:none;fill-rule:nonzero;fill:rgb(13.730068%,12.159915%,12.54902%);fill-opacity:1;" d="M 94.234375 51.136719 C 94.234375 50.746094 94.675781 50.722656 94.761719 50.722656 L 95.800781 50.722656 C 95.886719 50.722656 96.328125 50.746094 96.328125 51.136719 L 96.328125 51.507812 C 96.328125 51.902344 95.886719 51.925781 95.800781 51.925781 L 94.761719 51.925781 C 94.667969 51.925781 94.234375 51.902344 94.234375 51.507812 L 94.234375 51.136719 Z M 94.65625 52.550781 L 95.800781 52.550781 C 96.007812 52.550781 96.179688 52.503906 96.335938 52.441406 C 96.355469 52.46875 96.390625 52.496094 96.429688 52.496094 L 96.957031 52.496094 C 97.007812 52.496094 97.0625 52.453125 97.0625 52.390625 L 97.0625 50.410156 C 97.0625 49.40625 96.488281 48.855469 95.492188 48.855469 L 94.023438 48.855469 C 93.96875 48.855469 93.925781 48.898438 93.925781 48.960938 L 93.925781 49.371094 C 93.925781 49.4375 93.972656 49.476562 94.023438 49.476562 L 95.390625 49.476562 C 95.957031 49.476562 96.25 49.695312 96.304688 50.207031 C 96.15625 50.128906 95.984375 50.109375 95.800781 50.109375 L 94.65625 50.109375 C 93.988281 50.109375 93.496094 50.535156 93.496094 51.136719 L 93.496094 51.507812 C 93.496094 52.109375 93.988281 52.550781 94.65625 52.550781 "/>
<path style=" stroke:none;fill-rule:nonzero;fill:rgb(13.730068%,12.159915%,12.54902%);fill-opacity:1;" d="M 100.640625 50.933594 L 100.640625 47.601562 C 100.640625 47.539062 100.589844 47.496094 100.535156 47.496094 L 100.007812 47.496094 C 99.953125 47.496094 99.90625 47.546875 99.90625 47.601562 L 99.90625 50.941406 C 99.90625 51.941406 100.464844 52.496094 101.480469 52.496094 L 102.171875 52.496094 C 102.222656 52.496094 102.277344 52.453125 102.277344 52.390625 L 102.277344 51.976562 C 102.277344 51.914062 102.222656 51.871094 102.164062 51.871094 L 101.585938 51.871094 C 100.925781 51.871094 100.640625 51.59375 100.640625 50.933594 "/>
<path style=" stroke:none;fill-rule:nonzero;fill:rgb(13.730068%,12.159915%,12.54902%);fill-opacity:1;" d="M 63.558594 58.878906 C 63.558594 59.542969 63.285156 59.824219 62.621094 59.824219 L 62.417969 59.824219 C 61.761719 59.824219 61.480469 59.542969 61.480469 58.878906 L 61.480469 58.359375 C 61.480469 57.703125 61.769531 57.421875 62.417969 57.421875 L 62.621094 57.421875 C 63.285156 57.421875 63.558594 57.703125 63.558594 58.359375 L 63.558594 58.878906 Z M 62.726562 56.800781 L 62.316406 56.800781 C 61.304688 56.800781 60.746094 57.351562 60.746094 58.359375 L 60.746094 58.878906 C 60.746094 59.894531 61.3125 60.445312 62.316406 60.445312 L 62.832031 60.445312 C 62.921875 60.445312 63.355469 60.46875 63.355469 60.867188 C 63.355469 61.257812 62.917969 61.285156 62.832031 61.285156 L 62.417969 61.285156 C 62.335938 61.285156 61.972656 61.257812 61.902344 60.964844 C 61.894531 60.910156 61.859375 60.859375 61.808594 60.859375 L 61.273438 60.859375 C 61.214844 60.859375 61.171875 60.914062 61.179688 60.972656 C 61.230469 61.519531 61.683594 61.902344 62.316406 61.902344 L 62.9375 61.902344 C 63.601562 61.902344 64.085938 61.453125 64.085938 60.859375 C 64.085938 60.566406 63.96875 60.320312 63.777344 60.136719 C 64.121094 59.871094 64.292969 59.445312 64.292969 58.878906 L 64.292969 58.359375 C 64.292969 57.351562 63.742188 56.800781 62.726562 56.800781 "/>
<path style=" stroke:none;fill-rule:nonzero;fill:rgb(13.730068%,12.159915%,12.54902%);fill-opacity:1;" d="M 66.949219 58.359375 C 66.949219 57.703125 67.234375 57.421875 67.886719 57.421875 L 68.089844 57.421875 C 68.753906 57.421875 69.027344 57.703125 69.027344 58.359375 L 66.949219 58.359375 Z M 68.195312 56.800781 L 67.78125 56.800781 C 66.773438 56.800781 66.214844 57.351562 66.214844 58.359375 L 66.214844 58.941406 C 66.214844 59.941406 66.78125 60.496094 67.78125 60.496094 L 69.234375 60.496094 C 69.300781 60.496094 69.34375 60.453125 69.34375 60.390625 L 69.34375 59.976562 C 69.34375 59.914062 69.292969 59.871094 69.234375 59.871094 L 67.886719 59.871094 C 67.246094 59.871094 66.96875 59.613281 66.949219 58.984375 L 69.65625 58.984375 C 69.71875 58.984375 69.761719 58.933594 69.761719 58.878906 L 69.761719 58.359375 C 69.761719 57.351562 69.210938 56.800781 68.195312 56.800781 "/>
<path style=" stroke:none;fill-rule:nonzero;fill:rgb(13.730068%,12.159915%,12.54902%);fill-opacity:1;" d="M 74.507812 60.496094 L 75.027344 60.496094 C 75.089844 60.496094 75.140625 60.453125 75.140625 60.390625 L 75.140625 58.359375 C 75.140625 57.351562 74.578125 56.800781 73.570312 56.800781 L 73.445312 56.800781 C 73.066406 56.800781 72.75 56.882812 72.507812 57.03125 L 72.507812 56.960938 C 72.507812 56.898438 72.449219 56.855469 72.402344 56.855469 L 71.875 56.855469 C 71.8125 56.855469 71.773438 56.898438 71.773438 56.960938 L 71.773438 60.390625 C 71.773438 60.453125 71.8125 60.496094 71.875 60.496094 L 72.402344 60.496094 C 72.457031 60.496094 72.507812 60.453125 72.507812 60.390625 L 72.507812 58.359375 C 72.507812 57.703125 72.785156 57.421875 73.445312 57.421875 L 73.472656 57.421875 C 74.121094 57.421875 74.402344 57.703125 74.402344 58.359375 L 74.402344 60.390625 C 74.402344 60.453125 74.453125 60.496094 74.507812 60.496094 "/>
<path style=" stroke:none;fill-rule:nonzero;fill:rgb(13.730068%,12.159915%,12.54902%);fill-opacity:1;" d="M 79.960938 58.984375 C 79.960938 59.648438 79.679688 59.929688 79.023438 59.929688 L 78.8125 59.929688 C 78.15625 59.929688 77.875 59.648438 77.875 58.984375 L 77.875 58.359375 C 77.875 57.703125 78.15625 57.421875 78.8125 57.421875 L 79.023438 57.421875 C 79.679688 57.421875 79.960938 57.703125 79.960938 58.359375 L 79.960938 58.984375 Z M 79.128906 56.800781 L 78.703125 56.800781 C 77.695312 56.800781 77.140625 57.351562 77.140625 58.359375 L 77.140625 58.984375 C 77.140625 60 77.695312 60.550781 78.703125 60.550781 L 79.128906 60.550781 C 80.144531 60.550781 80.695312 60 80.695312 58.984375 L 80.695312 58.359375 C 80.695312 57.351562 80.144531 56.800781 79.128906 56.800781 "/>
<path style=" stroke:none;fill-rule:nonzero;fill:rgb(13.730068%,12.159915%,12.54902%);fill-opacity:1;" d="M 85.222656 56.800781 C 84.890625 56.800781 84.59375 56.917969 84.394531 57.109375 C 84.179688 56.917969 83.902344 56.800781 83.558594 56.800781 C 83.363281 56.800781 83.1875 56.839844 83.027344 56.910156 C 83 56.871094 82.976562 56.855469 82.929688 56.855469 L 82.511719 56.855469 C 82.453125 56.855469 82.40625 56.898438 82.40625 56.960938 L 82.40625 60.390625 C 82.40625 60.453125 82.453125 60.496094 82.515625 60.496094 L 83.039062 60.496094 C 83.097656 60.496094 83.148438 60.453125 83.148438 60.390625 L 83.148438 57.84375 C 83.148438 57.445312 83.503906 57.421875 83.589844 57.421875 C 83.675781 57.421875 84.023438 57.445312 84.023438 57.84375 L 84.023438 60.390625 C 84.023438 60.453125 84.078125 60.496094 84.128906 60.496094 L 84.65625 60.496094 C 84.71875 60.496094 84.757812 60.453125 84.757812 60.390625 L 84.757812 57.84375 C 84.757812 57.445312 85.113281 57.421875 85.210938 57.421875 C 85.289062 57.421875 85.644531 57.445312 85.644531 57.84375 L 85.644531 60.390625 C 85.644531 60.453125 85.6875 60.496094 85.75 60.496094 L 86.277344 60.496094 C 86.339844 60.496094 86.382812 60.453125 86.382812 60.390625 L 86.382812 57.84375 C 86.382812 57.242188 85.890625 56.800781 85.222656 56.800781 "/>
<path style=" stroke:none;fill-rule:nonzero;fill:rgb(13.730068%,12.159915%,12.54902%);fill-opacity:1;" d="M 89.597656 56.234375 L 90.125 56.234375 C 90.1875 56.234375 90.230469 56.183594 90.230469 56.128906 L 90.230469 55.601562 C 90.230469 55.539062 90.179688 55.496094 90.125 55.496094 L 89.597656 55.496094 C 89.542969 55.496094 89.496094 55.546875 89.496094 55.601562 L 89.496094 56.128906 C 89.496094 56.183594 89.542969 56.234375 89.597656 56.234375 "/>
<path style=" stroke:none;fill-rule:nonzero;fill:rgb(13.730068%,12.159915%,12.54902%);fill-opacity:1;" d="M 89.496094 59.871094 L 88.289062 59.871094 C 88.242188 59.871094 88.183594 59.921875 88.183594 59.976562 L 88.183594 60.390625 C 88.183594 60.445312 88.242188 60.496094 88.296875 60.496094 L 91.425781 60.496094 C 91.488281 60.496094 91.53125 60.441406 91.53125 60.390625 L 91.53125 59.976562 C 91.53125 59.914062 91.488281 59.871094 91.425781 59.871094 L 90.230469 59.871094 L 90.230469 56.960938 C 90.230469 56.898438 90.179688 56.855469 90.125 56.855469 L 89.597656 56.855469 C 89.542969 56.855469 89.496094 56.898438 89.496094 56.960938 L 89.496094 59.871094 "/>
<path style=" stroke:none;fill-rule:nonzero;fill:rgb(13.730068%,12.159915%,12.54902%);fill-opacity:1;" d="M 95.242188 57.421875 L 95.453125 57.421875 C 95.941406 57.421875 96.226562 57.582031 96.335938 57.941406 C 96.355469 58.003906 96.375 58.046875 96.441406 58.046875 L 96.96875 58.046875 C 97.03125 58.046875 97.089844 58.003906 97.078125 57.941406 C 96.945312 57.207031 96.410156 56.800781 95.554688 56.800781 L 95.136719 56.800781 C 94.128906 56.800781 93.570312 57.351562 93.570312 58.359375 L 93.570312 58.984375 C 93.570312 60 94.128906 60.550781 95.136719 60.550781 L 95.554688 60.550781 C 96.410156 60.550781 96.945312 60.144531 97.078125 59.410156 C 97.089844 59.347656 97.03125 59.304688 96.96875 59.304688 L 96.441406 59.304688 C 96.375 59.304688 96.355469 59.347656 96.335938 59.410156 C 96.226562 59.761719 95.941406 59.929688 95.453125 59.929688 L 95.242188 59.929688 C 94.585938 59.929688 94.304688 59.648438 94.304688 58.984375 L 94.304688 58.359375 C 94.304688 57.703125 94.585938 57.421875 95.242188 57.421875 "/>
<path style=" stroke:none;fill-rule:nonzero;fill:rgb(13.730068%,12.159915%,12.54902%);fill-opacity:1;" d="M 101.417969 58.304688 L 100.269531 58.3125 C 100.183594 58.3125 99.742188 58.289062 99.742188 57.898438 L 99.742188 57.84375 C 99.742188 57.449219 100.183594 57.421875 100.269531 57.421875 L 101.207031 57.421875 C 101.285156 57.421875 101.648438 57.445312 101.710938 57.738281 C 101.726562 57.792969 101.757812 57.84375 101.816406 57.84375 L 102.339844 57.84375 C 102.398438 57.84375 102.453125 57.800781 102.453125 57.738281 C 102.398438 57.191406 101.933594 56.800781 101.3125 56.800781 L 100.15625 56.800781 C 99.488281 56.800781 99.007812 57.242188 99.007812 57.84375 L 99.007812 57.898438 C 99.007812 58.5 99.488281 58.933594 100.15625 58.933594 L 101.3125 58.933594 C 101.390625 58.933594 101.828125 58.957031 101.828125 59.347656 L 101.828125 59.507812 C 101.828125 59.902344 101.390625 59.929688 101.3125 59.929688 L 100.269531 59.929688 C 100.191406 59.929688 99.828125 59.90625 99.765625 59.613281 C 99.742188 59.558594 99.707031 59.507812 99.65625 59.507812 L 99.128906 59.507812 C 99.070312 59.507812 99.023438 59.550781 99.03125 59.613281 C 99.070312 60.160156 99.53125 60.550781 100.164062 60.550781 L 101.417969 60.550781 C 102.082031 60.550781 102.566406 60.109375 102.566406 59.507812 L 102.566406 59.347656 C 102.566406 58.746094 102.082031 58.304688 101.417969 58.304688 "/>
<path style=" stroke:none;fill-rule:nonzero;fill:rgb(13.730068%,12.159915%,12.54902%);fill-opacity:1;" d="M 73.269531 68.550781 L 73.691406 68.550781 C 74.542969 68.550781 75.074219 68.144531 75.207031 67.410156 C 75.222656 67.347656 75.164062 67.304688 75.101562 67.304688 L 74.570312 67.304688 C 74.507812 67.304688 74.484375 67.347656 74.464844 67.410156 C 74.359375 67.761719 74.074219 67.929688 73.585938 67.929688 L 73.371094 67.929688 C 72.714844 67.929688 72.433594 67.648438 72.433594 66.984375 L 72.433594 66.359375 C 72.433594 65.703125 72.714844 65.421875 73.371094 65.421875 L 73.585938 65.421875 C 74.074219 65.421875 74.359375 65.582031 74.464844 65.941406 C 74.484375 66.003906 74.507812 66.046875 74.570312 66.046875 L 75.101562 66.046875 C 75.164062 66.046875 75.222656 66.003906 75.207031 65.941406 C 75.074219 65.207031 74.542969 64.800781 73.691406 64.800781 L 73.269531 64.800781 C 72.261719 64.800781 71.703125 65.351562 71.703125 66.359375 L 71.703125 66.984375 C 71.703125 68 72.261719 68.550781 73.269531 68.550781 "/>
<path style=" stroke:none;fill-rule:nonzero;fill:rgb(13.730068%,12.159915%,12.54902%);fill-opacity:1;" d="M 77.882812 66.359375 C 77.882812 65.703125 78.167969 65.421875 78.820312 65.421875 L 79.023438 65.421875 C 79.6875 65.421875 79.960938 65.703125 79.960938 66.359375 L 77.882812 66.359375 Z M 79.128906 64.800781 L 78.714844 64.800781 C 77.707031 64.800781 77.148438 65.351562 77.148438 66.359375 L 77.148438 66.941406 C 77.148438 67.941406 77.714844 68.496094 78.714844 68.496094 L 80.167969 68.496094 C 80.234375 68.496094 80.277344 68.453125 80.277344 68.390625 L 80.277344 67.976562 C 80.277344 67.914062 80.226562 67.871094 80.167969 67.871094 L 78.820312 67.871094 C 78.179688 67.871094 77.902344 67.613281 77.882812 66.984375 L 80.589844 66.984375 C 80.65625 66.984375 80.695312 66.933594 80.695312 66.878906 L 80.695312 66.359375 C 80.695312 65.351562 80.144531 64.800781 79.128906 64.800781 "/>
<path style=" stroke:none;fill-rule:nonzero;fill:rgb(13.730068%,12.159915%,12.54902%);fill-opacity:1;" d="M 84.503906 64.800781 L 84.378906 64.800781 C 84 64.800781 83.683594 64.882812 83.441406 65.03125 L 83.441406 64.960938 C 83.441406 64.898438 83.386719 64.855469 83.335938 64.855469 L 82.808594 64.855469 C 82.746094 64.855469 82.707031 64.898438 82.707031 64.960938 L 82.707031 68.390625 C 82.707031 68.453125 82.746094 68.496094 82.808594 68.496094 L 83.335938 68.496094 C 83.390625 68.496094 83.441406 68.453125 83.441406 68.390625 L 83.441406 66.359375 C 83.441406 65.703125 83.71875 65.421875 84.378906 65.421875 L 84.40625 65.421875 C 85.054688 65.421875 85.339844 65.703125 85.339844 66.359375 L 85.339844 68.390625 C 85.339844 68.453125 85.386719 68.496094 85.441406 68.496094 L 85.960938 68.496094 C 86.023438 68.496094 86.074219 68.453125 86.074219 68.390625 L 86.074219 66.359375 C 86.074219 65.351562 85.511719 64.800781 84.503906 64.800781 "/>
<path style=" stroke:none;fill-rule:nonzero;fill:rgb(13.730068%,12.159915%,12.54902%);fill-opacity:1;" d="M 91.46875 64.90625 L 89.644531 64.90625 L 89.644531 63.601562 C 89.644531 63.539062 89.597656 63.496094 89.535156 63.496094 L 89.011719 63.496094 C 88.949219 63.496094 88.90625 63.546875 88.90625 63.601562 L 88.90625 64.910156 L 88.234375 64.910156 C 88.179688 64.910156 88.132812 64.953125 88.132812 65.003906 L 88.132812 65.421875 C 88.132812 65.484375 88.179688 65.527344 88.234375 65.527344 L 88.90625 65.527344 L 88.90625 66.941406 C 88.90625 67.941406 89.460938 68.496094 90.46875 68.496094 L 91.261719 68.496094 C 91.316406 68.496094 91.363281 68.453125 91.363281 68.390625 L 91.363281 67.976562 C 91.363281 67.914062 91.316406 67.871094 91.261719 67.871094 L 90.582031 67.871094 C 89.921875 67.871094 89.644531 67.59375 89.644531 66.933594 L 89.644531 65.527344 L 91.46875 65.527344 C 91.527344 65.527344 91.566406 65.484375 91.566406 65.421875 L 91.566406 65.003906 C 91.566406 64.953125 91.527344 64.90625 91.46875 64.90625 "/>
<path style=" stroke:none;fill-rule:nonzero;fill:rgb(13.730068%,12.159915%,12.54902%);fill-opacity:1;" d="M 94.28125 66.359375 C 94.28125 65.703125 94.570312 65.421875 95.21875 65.421875 L 95.421875 65.421875 C 96.089844 65.421875 96.359375 65.703125 96.359375 66.359375 L 94.28125 66.359375 Z M 95.53125 64.800781 L 95.113281 64.800781 C 94.105469 64.800781 93.546875 65.351562 93.546875 66.359375 L 93.546875 66.941406 C 93.546875 67.941406 94.113281 68.496094 95.113281 68.496094 L 96.574219 68.496094 C 96.636719 68.496094 96.675781 68.453125 96.675781 68.390625 L 96.675781 67.976562 C 96.675781 67.914062 96.628906 67.871094 96.574219 67.871094 L 95.21875 67.871094 C 94.585938 67.871094 94.304688 67.613281 94.28125 66.984375 L 96.992188 66.984375 C 97.054688 66.984375 97.097656 66.933594 97.097656 66.878906 L 97.097656 66.359375 C 97.097656 65.351562 96.542969 64.800781 95.53125 64.800781 "/>
<path style=" stroke:none;fill-rule:nonzero;fill:rgb(13.730068%,12.159915%,12.54902%);fill-opacity:1;" d="M 102.152344 68.390625 L 102.152344 67.976562 C 102.152344 67.914062 102.097656 67.871094 102.046875 67.871094 L 100.640625 67.871094 L 100.640625 65.898438 C 100.640625 65.492188 101.074219 65.480469 101.164062 65.480469 L 101.941406 65.480469 C 101.996094 65.480469 102.046875 65.429688 102.046875 65.375 L 102.046875 64.960938 C 102.046875 64.90625 101.992188 64.855469 101.941406 64.855469 L 101.046875 64.855469 C 100.378906 64.855469 99.90625 65.296875 99.90625 65.898438 L 99.90625 67.871094 L 98.972656 67.871094 C 98.910156 67.871094 98.867188 67.921875 98.867188 67.976562 L 98.867188 68.390625 C 98.867188 68.445312 98.914062 68.496094 98.972656 68.496094 L 102.046875 68.496094 C 102.101562 68.496094 102.152344 68.441406 102.152344 68.390625 "/>
<path style=" stroke:none;fill-rule:nonzero;fill:rgb(13.730068%,12.159915%,12.54902%);fill-opacity:1;" d="M 75.121094 75.871094 L 72.601562 75.871094 L 75.019531 73.714844 C 75.074219 73.660156 75.121094 73.613281 75.121094 73.554688 L 75.121094 72.960938 C 75.121094 72.898438 75.070312 72.855469 75.019531 72.855469 L 71.898438 72.855469 C 71.835938 72.855469 71.785156 72.898438 71.785156 72.960938 L 71.785156 73.375 C 71.785156 73.429688 71.835938 73.480469 71.890625 73.480469 L 74.207031 73.480469 L 71.789062 75.632812 C 71.734375 75.691406 71.679688 75.734375 71.679688 75.796875 L 71.679688 76.390625 C 71.679688 76.453125 71.726562 76.496094 71.785156 76.496094 L 75.121094 76.496094 C 75.171875 76.496094 75.226562 76.453125 75.226562 76.390625 L 75.226562 75.976562 C 75.226562 75.921875 75.171875 75.871094 75.121094 75.871094 "/>
<path style=" stroke:none;fill-rule:nonzero;fill:rgb(13.730068%,12.159915%,12.54902%);fill-opacity:1;" d="M 80.484375 72.855469 L 79.960938 72.855469 C 79.898438 72.855469 79.855469 72.898438 79.855469 72.960938 L 79.855469 74.984375 C 79.855469 75.648438 79.578125 75.929688 78.917969 75.929688 C 78.261719 75.929688 77.980469 75.648438 77.980469 74.984375 L 77.980469 72.960938 C 77.980469 72.898438 77.9375 72.855469 77.875 72.855469 L 77.347656 72.855469 C 77.300781 72.855469 77.242188 72.898438 77.242188 72.960938 L 77.242188 74.984375 C 77.242188 76 77.804688 76.550781 78.8125 76.550781 L 78.917969 76.550781 C 79.292969 76.550781 79.609375 76.46875 79.855469 76.320312 L 79.855469 76.390625 C 79.855469 76.453125 79.898438 76.496094 79.960938 76.496094 L 80.484375 76.496094 C 80.535156 76.496094 80.589844 76.453125 80.589844 76.390625 L 80.589844 72.960938 C 80.589844 72.898438 80.535156 72.855469 80.484375 72.855469 "/>
<path style=" stroke:none;fill-rule:nonzero;fill:rgb(13.730068%,12.159915%,12.54902%);fill-opacity:1;" d="M 85.644531 75.871094 L 84.238281 75.871094 L 84.238281 73.898438 C 84.238281 73.492188 84.671875 73.480469 84.765625 73.480469 L 85.539062 73.480469 C 85.59375 73.480469 85.644531 73.429688 85.644531 73.375 L 85.644531 72.960938 C 85.644531 72.90625 85.589844 72.855469 85.539062 72.855469 L 84.644531 72.855469 C 83.976562 72.855469 83.503906 73.296875 83.503906 73.898438 L 83.503906 75.871094 L 82.574219 75.871094 C 82.511719 75.871094 82.46875 75.921875 82.46875 75.976562 L 82.46875 76.390625 C 82.46875 76.445312 82.515625 76.496094 82.574219 76.496094 L 85.644531 76.496094 C 85.703125 76.496094 85.75 76.441406 85.75 76.390625 L 85.75 75.976562 C 85.75 75.914062 85.695312 75.871094 85.644531 75.871094 "/>
<path style=" stroke:none;fill-rule:nonzero;fill:rgb(13.730068%,12.159915%,12.54902%);fill-opacity:1;" d="M 91.425781 75.871094 L 90.230469 75.871094 L 90.230469 72.960938 C 90.230469 72.898438 90.179688 72.855469 90.125 72.855469 L 89.597656 72.855469 C 89.542969 72.855469 89.496094 72.898438 89.496094 72.960938 L 89.496094 75.871094 L 88.289062 75.871094 C 88.242188 75.871094 88.183594 75.921875 88.183594 75.976562 L 88.183594 76.390625 C 88.183594 76.445312 88.242188 76.496094 88.296875 76.496094 L 91.425781 76.496094 C 91.488281 76.496094 91.53125 76.441406 91.53125 76.390625 L 91.53125 75.976562 C 91.53125 75.914062 91.488281 75.871094 91.425781 75.871094 "/>
<path style=" stroke:none;fill-rule:nonzero;fill:rgb(13.730068%,12.159915%,12.54902%);fill-opacity:1;" d="M 89.597656 72.234375 L 90.125 72.234375 C 90.1875 72.234375 90.230469 72.183594 90.230469 72.128906 L 90.230469 71.601562 C 90.230469 71.539062 90.179688 71.496094 90.125 71.496094 L 89.597656 71.496094 C 89.542969 71.496094 89.496094 71.546875 89.496094 71.601562 L 89.496094 72.128906 C 89.496094 72.183594 89.542969 72.234375 89.597656 72.234375 "/>
<path style=" stroke:none;fill-rule:nonzero;fill:rgb(13.730068%,12.159915%,12.54902%);fill-opacity:1;" d="M 95.242188 73.421875 L 95.453125 73.421875 C 95.941406 73.421875 96.226562 73.582031 96.335938 73.941406 C 96.355469 74.003906 96.375 74.046875 96.441406 74.046875 L 96.96875 74.046875 C 97.03125 74.046875 97.089844 74.003906 97.078125 73.941406 C 96.945312 73.207031 96.410156 72.800781 95.554688 72.800781 L 95.136719 72.800781 C 94.128906 72.800781 93.570312 73.351562 93.570312 74.359375 L 93.570312 74.984375 C 93.570312 76 94.128906 76.550781 95.136719 76.550781 L 95.554688 76.550781 C 96.410156 76.550781 96.945312 76.144531 97.078125 75.410156 C 97.089844 75.347656 97.03125 75.304688 96.96875 75.304688 L 96.441406 75.304688 C 96.375 75.304688 96.355469 75.347656 96.335938 75.410156 C 96.226562 75.761719 95.941406 75.929688 95.453125 75.929688 L 95.242188 75.929688 C 94.585938 75.929688 94.304688 75.648438 94.304688 74.984375 L 94.304688 74.359375 C 94.304688 73.703125 94.585938 73.421875 95.242188 73.421875 "/>
<path style=" stroke:none;fill-rule:nonzero;fill:rgb(13.730068%,12.159915%,12.54902%);fill-opacity:1;" d="M 100.988281 72.800781 L 100.863281 72.800781 C 100.480469 72.800781 100.164062 72.882812 99.921875 73.03125 L 99.921875 71.601562 C 99.921875 71.539062 99.875 71.496094 99.820312 71.496094 L 99.292969 71.496094 C 99.246094 71.496094 99.191406 71.546875 99.191406 71.601562 L 99.191406 76.390625 C 99.191406 76.453125 99.246094 76.496094 99.300781 76.496094 L 99.828125 76.496094 C 99.875 76.496094 99.929688 76.453125 99.929688 76.390625 L 99.929688 74.359375 C 99.929688 73.703125 100.210938 73.421875 100.863281 73.421875 L 100.882812 73.421875 C 101.550781 73.421875 101.824219 73.703125 101.824219 74.359375 L 101.824219 76.390625 C 101.824219 76.453125 101.871094 76.496094 101.925781 76.496094 L 102.453125 76.496094 C 102.507812 76.496094 102.558594 76.453125 102.558594 76.390625 L 102.558594 74.359375 C 102.558594 73.351562 102.003906 72.800781 100.988281 72.800781 "/>
</g>
</g>
</svg>
