<?xml version="1.0" encoding="UTF-8"?>
<svg xmlns="http://www.w3.org/2000/svg" xmlns:xlink="http://www.w3.org/1999/xlink" width="153.92pt" height="48.18pt" viewBox="0 0 153.92 48.18" version="1.1">
<defs>
<clipPath id="clip1">
  <path d="M 54 7 L 153.898438 7 L 153.898438 41 L 54 41 Z M 54 7 "/>
</clipPath>
<clipPath id="clip2">
  <path d="M 0 0 L 125 0 L 125 48.179688 L 0 48.179688 Z M 0 0 "/>
</clipPath>
</defs>
<g id="surface1">
<g clip-path="url(#clip1)" clip-rule="nonzero">
<path style=" stroke:none;fill-rule:nonzero;fill:rgb(13.729858%,12.159729%,12.548828%);fill-opacity:1;" d="M 153.757812 9.894531 C 153.394531 9.769531 152.980469 9.734375 152.640625 9.734375 C 151.628906 9.734375 151.179688 10.253906 151.179688 11.445312 L 151.179688 12.203125 L 153.269531 12.203125 L 153.269531 13.984375 L 151.179688 13.984375 L 151.179688 21.15625 L 148.890625 21.15625 L 148.890625 13.984375 L 147.320312 13.984375 L 147.320312 12.203125 L 148.890625 12.203125 L 148.890625 11.480469 C 148.890625 9.046875 150.007812 7.859375 152.457031 7.859375 C 152.941406 7.859375 153.449219 7.894531 153.917969 8.003906 Z M 142.152344 13.96875 C 141.125 13.96875 140.113281 14.761719 140.113281 16.597656 C 140.113281 18.4375 140.78125 19.375 142.113281 19.375 C 143.253906 19.375 144.113281 18.453125 144.113281 16.632812 C 144.113281 14.90625 143.503906 13.96875 142.152344 13.96875 Z M 141.917969 21.339844 C 139.378906 21.339844 137.734375 20.023438 137.734375 16.832031 C 137.734375 14.039062 139.59375 12.023438 142.3125 12.023438 C 144.855469 12.023438 146.492188 13.425781 146.492188 16.507812 C 146.492188 19.320312 144.605469 21.339844 141.917969 21.339844 Z M 130.835938 21.988281 C 129.769531 24.78125 128.835938 25.628906 126.78125 25.628906 C 126.386719 25.628906 125.898438 25.574219 125.519531 25.484375 L 125.664062 23.5 C 126.078125 23.625 126.457031 23.699219 126.890625 23.699219 C 127.644531 23.699219 128.148438 23.355469 128.617188 22.023438 L 128.925781 21.15625 L 125.628906 12.203125 L 128.1875 12.203125 L 129.394531 15.625 C 129.664062 16.402344 129.898438 17.285156 130.097656 18.09375 L 130.113281 18.09375 C 130.3125 17.285156 130.691406 16.09375 130.980469 15.246094 L 132.042969 12.203125 L 134.511719 12.203125 Z M 122.835938 21.339844 C 120.855469 21.339844 120.222656 20.617188 120.222656 18.527344 L 120.222656 13.984375 L 118.6875 13.984375 L 118.6875 12.203125 L 120.222656 12.203125 L 120.222656 9.445312 L 122.527344 8.832031 L 122.527344 12.203125 L 124.710938 12.203125 L 124.710938 13.984375 L 122.527344 13.984375 L 122.527344 17.914062 C 122.527344 19.066406 122.800781 19.390625 123.59375 19.390625 C 123.972656 19.390625 124.386719 19.335938 124.710938 19.246094 L 124.710938 21.105469 C 124.132812 21.246094 123.464844 21.339844 122.835938 21.339844 Z M 114.707031 21.15625 L 114.707031 12.203125 L 117.015625 12.203125 L 117.015625 21.15625 Z M 115.859375 11.046875 C 115.066406 11.046875 114.4375 10.417969 114.4375 9.644531 C 114.4375 8.886719 115.066406 8.253906 115.859375 8.253906 C 116.652344 8.253906 117.304688 8.867188 117.304688 9.644531 C 117.304688 10.417969 116.652344 11.046875 115.859375 11.046875 Z M 108.742188 21.339844 C 108.09375 21.339844 107.445312 21.265625 106.867188 21.175781 L 106.925781 19.285156 C 107.480469 19.429688 108.164062 19.554688 108.851562 19.554688 C 109.734375 19.554688 110.3125 19.195312 110.3125 18.597656 C 110.3125 17.011719 106.6875 17.914062 106.6875 14.867188 C 106.6875 13.300781 107.96875 12.003906 110.492188 12.003906 C 111.015625 12.003906 111.589844 12.074219 112.132812 12.164062 L 112.058594 13.984375 C 111.554688 13.839844 110.960938 13.75 110.398438 13.75 C 109.5 13.75 109.066406 14.113281 109.066406 14.671875 C 109.066406 16.128906 112.742188 15.480469 112.742188 18.382812 C 112.742188 20.148438 111.191406 21.339844 108.742188 21.339844 Z M 105.589844 14.273438 C 103.933594 13.933594 103.105469 15.011719 103.105469 17.5 L 103.105469 21.15625 L 100.796875 21.15625 L 100.796875 12.203125 L 102.976562 12.203125 C 102.976562 12.652344 102.925781 13.371094 102.8125 14.003906 L 102.851562 14.003906 C 103.28125 12.867188 104.148438 11.878906 105.695312 12.003906 Z M 95.03125 13.699219 C 94.078125 13.699219 93.40625 14.398438 93.28125 15.480469 L 96.582031 15.480469 C 96.613281 14.363281 96.003906 13.699219 95.03125 13.699219 Z M 98.796875 17.050781 L 93.246094 17.050781 C 93.226562 18.726562 94.054688 19.535156 95.714844 19.535156 C 96.597656 19.535156 97.550781 19.335938 98.328125 18.976562 L 98.542969 20.761719 C 97.589844 21.140625 96.453125 21.339844 95.335938 21.339844 C 92.488281 21.339844 90.90625 19.914062 90.90625 16.761719 C 90.90625 14.023438 92.417969 12.003906 95.101562 12.003906 C 97.714844 12.003906 98.867188 13.789062 98.867188 16.003906 C 98.867188 16.308594 98.851562 16.671875 98.796875 17.050781 Z M 87.210938 21.15625 L 84.867188 21.15625 L 81.550781 12.203125 L 84.078125 12.203125 L 85.496094 16.238281 C 85.714844 16.851562 85.929688 17.570312 86.09375 18.21875 L 86.128906 18.21875 C 86.273438 17.609375 86.453125 16.921875 86.667969 16.308594 L 88.109375 12.203125 L 90.5625 12.203125 Z M 77.949219 21.15625 L 77.949219 12.203125 L 80.257812 12.203125 L 80.257812 21.15625 Z M 79.101562 11.046875 C 78.308594 11.046875 77.679688 10.417969 77.679688 9.644531 C 77.679688 8.886719 78.308594 8.253906 79.101562 8.253906 C 79.894531 8.253906 80.542969 8.867188 80.542969 9.644531 C 80.542969 10.417969 79.894531 11.046875 79.101562 11.046875 Z M 73.15625 21.15625 L 73.15625 15.425781 C 73.15625 14.492188 72.902344 13.933594 72.054688 13.933594 C 70.886719 13.933594 69.964844 15.265625 69.964844 16.832031 L 69.964844 21.15625 L 67.660156 21.15625 L 67.660156 12.203125 L 69.839844 12.203125 C 69.839844 12.617188 69.804688 13.320312 69.714844 13.789062 L 69.730469 13.804688 C 70.273438 12.742188 71.316406 12.003906 72.777344 12.003906 C 74.796875 12.003906 75.445312 13.300781 75.445312 14.867188 L 75.445312 21.15625 Z M 60.109375 21.355469 C 56.269531 21.355469 55.40625 19.265625 55.40625 16.941406 L 55.40625 8.992188 L 57.75 8.992188 L 57.75 16.796875 C 57.75 18.328125 58.253906 19.410156 60.269531 19.410156 C 62.074219 19.410156 62.832031 18.652344 62.832031 16.582031 L 62.832031 8.992188 L 65.15625 8.992188 L 65.15625 16.4375 C 65.15625 19.769531 63.316406 21.355469 60.109375 21.355469 Z M 114.921875 31.625 L 114.921875 29.714844 L 113.242188 29.714844 L 113.242188 31.625 L 112.183594 31.625 L 112.183594 27.035156 L 113.242188 27.035156 L 113.242188 28.796875 L 114.921875 28.796875 L 114.921875 27.035156 L 115.980469 27.035156 L 115.980469 31.625 Z M 108.164062 31.625 L 108.164062 30.796875 L 109.640625 28.328125 C 109.714844 28.207031 109.796875 28.089844 109.882812 27.976562 C 109.761719 27.980469 109.605469 27.988281 109.160156 27.988281 L 108.210938 27.988281 L 108.210938 27.035156 L 111.183594 27.035156 L 111.183594 27.898438 L 109.625 30.402344 C 109.570312 30.492188 109.515625 30.566406 109.449219 30.660156 C 109.535156 30.648438 109.796875 30.648438 110.339844 30.648438 L 111.210938 30.648438 L 111.210938 31.625 Z M 105.335938 31.714844 C 103.871094 31.714844 103.519531 30.925781 103.519531 30.007812 L 103.519531 27.035156 L 104.578125 27.035156 L 104.578125 29.945312 C 104.578125 30.484375 104.75 30.824219 105.402344 30.824219 C 106 30.824219 106.230469 30.570312 106.230469 29.886719 L 106.230469 27.035156 L 107.277344 27.035156 L 107.277344 29.824219 C 107.277344 31.117188 106.550781 31.714844 105.335938 31.714844 Z M 99.476562 40.199219 L 99.476562 34.46875 C 99.476562 33.53125 99.222656 32.972656 98.378906 32.972656 C 97.207031 32.972656 96.289062 34.308594 96.289062 35.875 L 96.289062 40.199219 L 93.980469 40.199219 L 93.980469 27.046875 L 96.289062 27.046875 L 96.289062 30.882812 C 96.289062 31.425781 96.253906 32.179688 96.125 32.703125 L 96.160156 32.722656 C 96.683594 31.714844 97.710938 31.046875 99.097656 31.046875 C 101.117188 31.046875 101.765625 32.34375 101.765625 33.910156 L 101.765625 40.199219 Z M 89.726562 40.363281 C 87.242188 40.363281 85.695312 39.066406 85.695312 36.019531 C 85.695312 33.226562 87.152344 31.082031 90.324219 31.082031 C 90.9375 31.082031 91.585938 31.171875 92.160156 31.335938 L 91.925781 33.335938 C 91.441406 33.15625 90.882812 33.011719 90.304688 33.011719 C 88.84375 33.011719 88.105469 34.089844 88.105469 35.785156 C 88.105469 37.316406 88.703125 38.363281 90.234375 38.363281 C 90.84375 38.363281 91.515625 38.234375 92 37.984375 L 92.179688 39.949219 C 91.566406 40.183594 90.683594 40.363281 89.726562 40.363281 Z M 81.699219 40.199219 L 81.699219 31.246094 L 84.007812 31.246094 L 84.007812 40.199219 Z M 82.851562 30.089844 C 82.058594 30.089844 81.429688 29.460938 81.429688 28.683594 C 81.429688 27.929688 82.058594 27.296875 82.851562 27.296875 C 83.648438 27.296875 84.292969 27.910156 84.292969 28.683594 C 84.292969 29.460938 83.648438 30.089844 82.851562 30.089844 Z M 79.925781 33.316406 C 78.269531 32.972656 77.441406 34.054688 77.441406 36.542969 L 77.441406 40.199219 L 75.132812 40.199219 L 75.132812 31.246094 L 77.3125 31.246094 C 77.3125 31.695312 77.257812 32.414062 77.152344 33.046875 L 77.1875 33.046875 C 77.621094 31.910156 78.484375 30.921875 80.035156 31.046875 Z M 70.484375 40.199219 C 70.484375 39.785156 70.503906 39.082031 70.59375 38.613281 L 70.574219 38.597656 C 70.035156 39.660156 69.007812 40.398438 67.527344 40.398438 C 65.511719 40.398438 64.863281 39.101562 64.863281 37.535156 L 64.863281 31.246094 L 67.148438 31.246094 L 67.148438 36.976562 C 67.148438 37.910156 67.402344 38.472656 68.269531 38.472656 C 69.4375 38.472656 70.339844 37.136719 70.339844 35.570312 L 70.339844 31.246094 L 72.648438 31.246094 L 72.648438 40.199219 Z M 54.957031 40.199219 L 54.957031 38.398438 L 59.335938 31.261719 C 59.585938 30.847656 59.839844 30.488281 60.128906 30.109375 C 59.695312 30.128906 59.117188 30.144531 57.910156 30.144531 L 55.097656 30.144531 L 55.097656 28.035156 L 62.957031 28.035156 L 62.957031 29.910156 L 58.324219 37.226562 C 58.144531 37.515625 57.980469 37.785156 57.765625 38.074219 C 58.074219 38.039062 58.902344 38.039062 60.398438 38.039062 L 63.027344 38.039062 L 63.027344 40.199219 L 54.957031 40.199219 "/>
</g>
<g clip-path="url(#clip2)" clip-rule="nonzero">
<path style=" stroke:none;fill-rule:nonzero;fill:rgb(13.729858%,12.159729%,12.548828%);fill-opacity:1;" d="M 31.5625 34.621094 L 31.5625 11.46875 L 31.066406 11.46875 L 31.066406 8.914062 C 31.058594 8.597656 31.015625 8.398438 30.871094 8.070312 C 30.835938 7.988281 30.785156 7.898438 30.726562 7.808594 L 30.726562 6.886719 C 30.726562 6.886719 30.726562 6.164062 30.429688 5.617188 C 30.101562 5.023438 29.472656 4.699219 29.164062 4.570312 C 29.09375 4.535156 29.046875 4.519531 29.039062 4.519531 L 28.988281 4.5 L 28.925781 4.519531 C 28.894531 4.527344 28.394531 4.6875 27.921875 5.332031 C 27.488281 5.925781 27.476562 6.683594 27.472656 6.894531 C 27.472656 6.929688 27.472656 6.949219 27.472656 6.953125 L 27.472656 7.800781 C 27.414062 7.886719 27.335938 8.011719 27.246094 8.199219 C 27.117188 8.523438 27.105469 8.824219 27.101562 9.003906 L 27.101562 11.46875 L 26.601562 11.46875 L 26.601562 19.921875 L 25.234375 18.550781 L 25.234375 16.140625 L 24.769531 14.582031 L 24.09375 9.242188 L 23.589844 14.359375 L 23.125 16.140625 L 23.125 18.375 L 21.769531 19.730469 L 21.769531 11.46875 L 21.273438 11.46875 L 21.273438 8.914062 C 21.269531 8.597656 21.222656 8.398438 21.082031 8.070312 C 21.046875 7.988281 20.992188 7.898438 20.9375 7.808594 L 20.9375 6.886719 C 20.9375 6.886719 20.933594 6.164062 20.636719 5.617188 C 20.3125 5.023438 19.679688 4.699219 19.375 4.570312 C 19.300781 4.535156 19.257812 4.519531 19.246094 4.519531 L 19.195312 4.5 L 19.132812 4.519531 C 19.101562 4.527344 18.601562 4.6875 18.128906 5.332031 C 17.699219 5.925781 17.683594 6.683594 17.679688 6.894531 C 17.679688 6.929688 17.679688 6.949219 17.679688 6.953125 L 17.679688 7.800781 C 17.625 7.886719 17.542969 8.011719 17.457031 8.199219 C 17.324219 8.523438 17.316406 8.824219 17.3125 9.003906 L 17.3125 11.46875 L 16.8125 11.46875 L 16.8125 34.621094 L 4.644531 34.621094 C 2.945312 31.488281 1.976562 27.898438 1.976562 24.082031 C 1.976562 17.976562 4.449219 12.445312 8.453125 8.445312 C 12.457031 4.441406 17.984375 1.964844 24.089844 1.964844 C 30.199219 1.964844 35.726562 4.441406 39.730469 8.445312 C 43.730469 12.445312 46.207031 17.976562 46.207031 24.082031 C 46.207031 27.898438 45.238281 31.488281 43.535156 34.621094 Z M 30.957031 29.375 L 30.957031 34.621094 L 27.011719 34.621094 L 27.011719 29.375 Z M 30.957031 25.929688 L 30.957031 29.035156 L 27.011719 29.035156 L 27.011719 25.929688 Z M 30.957031 20.835938 L 30.957031 25.589844 L 27.011719 25.589844 L 27.011719 20.835938 Z M 29.738281 18.503906 L 29.738281 20.496094 L 28.234375 20.496094 L 28.234375 18.5 C 28.234375 18.117188 28.375 17.804688 28.597656 17.59375 C 28.707031 17.488281 28.839844 17.40625 28.984375 17.351562 L 28.988281 17.351562 C 29.136719 17.410156 29.265625 17.488281 29.375 17.59375 C 29.597656 17.804688 29.738281 18.117188 29.738281 18.5 Z M 30.957031 16.5 L 30.957031 20.496094 L 30.078125 20.496094 L 30.078125 18.5 C 30.082031 18.035156 29.902344 17.625 29.609375 17.347656 C 29.453125 17.195312 29.265625 17.085938 29.058594 17.011719 C 29.050781 17.007812 28.984375 16.988281 28.984375 16.988281 C 28.984375 16.988281 28.925781 17.007812 28.917969 17.011719 C 28.710938 17.082031 28.523438 17.195312 28.363281 17.347656 C 28.070312 17.625 27.894531 18.035156 27.894531 18.5 L 27.894531 20.496094 L 27.011719 20.496094 L 27.011719 16.5 Z M 29.660156 14.75 L 29.660156 16.160156 L 28.3125 16.160156 L 28.3125 14.75 C 28.316406 14.203125 28.585938 13.824219 28.984375 13.644531 C 29.386719 13.824219 29.65625 14.203125 29.660156 14.75 Z M 30.957031 13.019531 L 30.957031 16.160156 L 30.003906 16.160156 L 30.003906 14.75 C 30.003906 14.277344 29.828125 13.882812 29.542969 13.609375 C 29.390625 13.464844 29.203125 13.351562 29 13.28125 C 28.988281 13.277344 28.988281 13.277344 28.988281 13.277344 C 28.988281 13.277344 28.984375 13.277344 28.972656 13.28125 C 28.769531 13.351562 28.585938 13.464844 28.429688 13.609375 C 28.144531 13.882812 27.96875 14.28125 27.972656 14.75 L 27.972656 16.160156 L 27.011719 16.160156 L 27.011719 13.019531 Z M 30.957031 11.875 L 30.957031 12.679688 L 27.011719 12.679688 L 27.011719 11.875 Z M 28.035156 8.339844 C 28.128906 8.5625 28.144531 8.804688 28.144531 8.976562 L 28.148438 11.46875 L 27.515625 11.46875 L 27.515625 8.972656 C 27.519531 8.804688 27.535156 8.578125 27.632812 8.34375 C 27.699219 8.191406 27.769531 8.070312 27.824219 7.984375 C 27.898438 8.089844 27.964844 8.191406 28.035156 8.339844 Z M 29.472656 8.992188 L 29.472656 11.46875 L 28.5 11.46875 C 28.5 10.777344 28.5 8.992188 28.5 8.988281 C 28.507812 8.828125 28.519531 8.605469 28.636719 8.375 C 28.757812 8.132812 28.988281 7.988281 28.988281 7.988281 C 28.988281 7.988281 29.210938 8.132812 29.332031 8.375 C 29.457031 8.617188 29.464844 8.824219 29.472656 8.992188 Z M 30.148438 7.984375 C 30.207031 8.070312 30.269531 8.195312 30.339844 8.34375 C 30.4375 8.578125 30.460938 8.808594 30.464844 8.976562 L 30.464844 11.46875 L 29.824219 11.46875 C 29.824219 10.917969 29.824219 9.710938 29.824219 8.976562 C 29.828125 8.804688 29.855469 8.566406 29.949219 8.34375 C 30.027344 8.167969 30.089844 8.070312 30.148438 7.984375 Z M 27.902344 6.746094 C 27.917969 6.46875 27.992188 5.941406 28.261719 5.582031 C 28.46875 5.304688 28.671875 5.140625 28.820312 5.042969 C 28.886719 5 28.941406 4.972656 28.980469 4.953125 C 29.023438 4.972656 29.078125 5 29.144531 5.042969 C 29.292969 5.140625 29.496094 5.304688 29.703125 5.582031 C 29.972656 5.941406 30.046875 6.46875 30.0625 6.746094 Z M 30.066406 7.085938 L 30.066406 7.273438 C 30.0625 7.3125 30.050781 7.367188 30.03125 7.417969 C 30 7.503906 29.921875 7.636719 29.816406 7.804688 C 29.777344 7.867188 29.707031 7.976562 29.628906 8.132812 C 29.527344 7.980469 29.441406 7.878906 29.382812 7.816406 C 29.316406 7.746094 29.226562 7.65625 29.15625 7.570312 C 28.996094 7.382812 28.988281 7.269531 28.988281 7.269531 L 28.988281 7.273438 C 28.988281 7.273438 28.984375 7.382812 28.824219 7.570312 C 28.753906 7.65625 28.664062 7.746094 28.597656 7.816406 C 28.535156 7.878906 28.449219 7.980469 28.347656 8.140625 C 28.269531 7.980469 28.195312 7.867188 28.15625 7.800781 C 28.050781 7.636719 27.972656 7.5 27.9375 7.414062 C 27.90625 7.332031 27.898438 7.238281 27.898438 7.230469 L 27.898438 7.085938 Z M 26.601562 29.375 L 26.601562 34.621094 L 21.566406 34.621094 L 21.566406 29.375 Z M 23.15625 25.929688 L 23.15625 27.929688 L 25.027344 27.929688 L 25.027344 25.929688 L 26.601562 25.929688 L 26.601562 29.035156 L 21.566406 29.035156 L 21.566406 25.929688 Z M 26.601562 23.351562 L 26.601562 25.589844 L 25.027344 25.589844 L 25.027344 25.03125 C 25.027344 24.515625 24.609375 24.09375 24.09375 24.09375 C 23.574219 24.09375 23.15625 24.515625 23.15625 25.03125 L 23.15625 25.589844 L 21.566406 25.589844 L 21.566406 23.351562 Z M 26.601562 20.835938 L 26.601562 22.757812 L 21.566406 22.757812 L 21.566406 20.835938 Z M 24.09375 17.984375 L 26.601562 20.496094 L 21.582031 20.496094 Z M 23.566406 16.128906 L 23.964844 14.433594 L 24.125 11.597656 L 24.222656 14.429688 L 24.617188 16.128906 Z M 24.632812 16.535156 L 24.632812 17.953125 L 24.09375 17.410156 L 23.550781 17.949219 L 23.550781 16.535156 Z M 21.164062 29.375 L 21.164062 34.621094 L 17.222656 34.621094 L 17.222656 29.375 Z M 21.164062 25.929688 L 21.164062 29.035156 L 17.222656 29.035156 L 17.222656 25.929688 Z M 21.164062 20.835938 L 21.164062 25.589844 L 17.222656 25.589844 L 17.222656 20.835938 Z M 19.949219 18.503906 L 19.949219 20.496094 L 18.441406 20.496094 L 18.441406 18.5 C 18.441406 18.117188 18.582031 17.804688 18.804688 17.59375 C 18.917969 17.488281 19.046875 17.40625 19.195312 17.351562 C 19.34375 17.410156 19.472656 17.488281 19.582031 17.59375 C 19.808594 17.804688 19.949219 18.117188 19.949219 18.5 Z M 21.164062 16.5 L 21.164062 20.496094 L 20.289062 20.496094 L 20.289062 18.5 C 20.289062 18.035156 20.113281 17.625 19.816406 17.347656 C 19.660156 17.195312 19.472656 17.085938 19.269531 17.011719 C 19.257812 17.007812 19.195312 16.988281 19.195312 16.988281 C 19.195312 16.988281 19.132812 17.007812 19.125 17.011719 C 18.917969 17.082031 18.730469 17.195312 18.570312 17.347656 C 18.277344 17.625 18.101562 18.035156 18.101562 18.5 L 18.101562 20.496094 L 17.222656 20.496094 L 17.222656 16.5 Z M 19.871094 14.75 L 19.871094 16.160156 L 18.519531 16.160156 L 18.519531 14.75 C 18.523438 14.203125 18.792969 13.824219 19.195312 13.644531 C 19.597656 13.824219 19.863281 14.203125 19.871094 14.75 Z M 21.164062 13.019531 L 21.164062 16.160156 L 20.210938 16.160156 L 20.210938 14.75 C 20.210938 14.277344 20.035156 13.882812 19.75 13.609375 C 19.597656 13.464844 19.414062 13.351562 19.207031 13.28125 C 19.195312 13.277344 19.195312 13.277344 19.195312 13.277344 C 19.195312 13.277344 19.195312 13.277344 19.179688 13.28125 C 18.976562 13.351562 18.792969 13.464844 18.636719 13.609375 C 18.351562 13.882812 18.179688 14.28125 18.179688 14.75 L 18.179688 16.160156 L 17.222656 16.160156 L 17.222656 13.019531 Z M 21.164062 11.875 L 21.164062 12.679688 L 17.222656 12.679688 L 17.222656 11.875 Z M 18.246094 8.339844 C 18.335938 8.5625 18.351562 8.804688 18.351562 8.976562 L 18.355469 11.46875 L 17.722656 11.46875 L 17.722656 8.972656 C 17.726562 8.804688 17.742188 8.578125 17.839844 8.34375 C 17.910156 8.191406 17.976562 8.070312 18.035156 7.984375 C 18.105469 8.089844 18.175781 8.191406 18.246094 8.339844 Z M 19.679688 8.992188 L 19.679688 11.46875 L 18.707031 11.46875 C 18.707031 10.777344 18.707031 8.992188 18.707031 8.988281 C 18.714844 8.828125 18.726562 8.605469 18.84375 8.375 C 18.96875 8.132812 19.199219 7.988281 19.199219 7.988281 C 19.199219 7.988281 19.417969 8.132812 19.539062 8.375 C 19.664062 8.617188 19.675781 8.824219 19.679688 8.992188 Z M 20.355469 7.984375 C 20.414062 8.070312 20.480469 8.195312 20.550781 8.34375 C 20.644531 8.578125 20.667969 8.808594 20.671875 8.976562 L 20.671875 11.46875 L 20.03125 11.46875 C 20.03125 10.917969 20.03125 9.710938 20.03125 8.976562 C 20.035156 8.804688 20.066406 8.566406 20.15625 8.34375 C 20.234375 8.167969 20.296875 8.070312 20.355469 7.984375 Z M 18.109375 6.746094 C 18.125 6.46875 18.203125 5.941406 18.472656 5.582031 C 18.675781 5.304688 18.878906 5.140625 19.027344 5.042969 C 19.097656 5 19.152344 4.972656 19.191406 4.953125 C 19.230469 4.972656 19.285156 5 19.351562 5.042969 C 19.503906 5.140625 19.707031 5.304688 19.910156 5.582031 C 20.179688 5.941406 20.253906 6.46875 20.273438 6.746094 Z M 20.277344 7.085938 L 20.277344 7.273438 C 20.269531 7.3125 20.261719 7.367188 20.242188 7.417969 C 20.210938 7.503906 20.128906 7.636719 20.023438 7.804688 C 19.984375 7.867188 19.914062 7.976562 19.835938 8.132812 C 19.734375 7.980469 19.652344 7.878906 19.589844 7.816406 C 19.523438 7.746094 19.433594 7.65625 19.363281 7.570312 C 19.207031 7.382812 19.195312 7.269531 19.195312 7.269531 L 19.195312 7.273438 C 19.195312 7.273438 19.191406 7.382812 19.035156 7.570312 C 18.960938 7.65625 18.871094 7.746094 18.804688 7.816406 C 18.746094 7.878906 18.660156 7.980469 18.554688 8.140625 C 18.476562 7.980469 18.40625 7.867188 18.363281 7.800781 C 18.257812 7.636719 18.179688 7.5 18.148438 7.414062 C 18.117188 7.335938 18.105469 7.242188 18.105469 7.230469 L 18.105469 7.085938 Z M 43.027344 35.511719 L 5.15625 35.511719 C 5.042969 35.332031 4.9375 35.148438 4.832031 34.960938 L 43.347656 34.960938 C 43.242188 35.148438 43.136719 35.332031 43.027344 35.511719 Z M 41.539062 37.671875 C 41.285156 37.128906 40.734375 36.753906 40.09375 36.753906 C 39.210938 36.753906 38.492188 37.472656 38.492188 38.355469 L 38.492188 38.875 L 37.914062 38.875 L 37.914062 38.355469 C 37.914062 37.472656 37.199219 36.753906 36.3125 36.753906 C 35.429688 36.753906 34.714844 37.472656 34.714844 38.355469 L 34.714844 38.875 L 34.132812 38.875 L 34.132812 38.355469 C 34.132812 37.472656 33.417969 36.753906 32.53125 36.753906 C 31.648438 36.753906 30.933594 37.472656 30.933594 38.355469 L 30.933594 38.875 L 30.351562 38.875 L 30.351562 38.355469 C 30.351562 37.472656 29.636719 36.753906 28.753906 36.753906 C 27.867188 36.753906 27.152344 37.472656 27.152344 38.355469 L 27.152344 38.875 L 26.554688 38.875 C 26.371094 37.675781 25.339844 36.753906 24.09375 36.753906 C 22.84375 36.753906 21.8125 37.675781 21.628906 38.875 L 21.015625 38.875 L 21.015625 38.355469 C 21.015625 37.472656 20.296875 36.753906 19.414062 36.753906 C 18.53125 36.753906 17.8125 37.472656 17.8125 38.355469 L 17.8125 38.875 L 17.234375 38.875 L 17.234375 38.355469 C 17.234375 37.472656 16.515625 36.753906 15.632812 36.753906 C 14.75 36.753906 14.03125 37.472656 14.03125 38.355469 L 14.03125 38.875 L 13.453125 38.875 L 13.453125 38.355469 C 13.453125 37.472656 12.734375 36.753906 11.851562 36.753906 C 10.96875 36.753906 10.25 37.472656 10.25 38.355469 L 10.25 38.875 L 9.671875 38.875 L 9.671875 38.355469 C 9.671875 37.472656 8.957031 36.753906 8.070312 36.753906 C 7.4375 36.753906 6.890625 37.125 6.632812 37.660156 C 6.242188 37.15625 5.875 36.640625 5.527344 36.105469 L 42.65625 36.105469 C 42.304688 36.644531 41.933594 37.167969 41.539062 37.671875 Z M 39.730469 39.722656 C 36.28125 43.171875 31.695312 45.484375 26.585938 46.058594 L 26.585938 43.527344 L 27.519531 43.527344 C 29.25 43.527344 30.503906 43.382812 30.503906 43.382812 C 30.503906 43.382812 29.214844 43.1875 27.519531 43.1875 L 26.585938 43.1875 L 26.585938 39.46875 L 27.703125 39.46875 L 27.703125 38.355469 C 27.703125 37.71875 28.21875 37.199219 28.859375 37.199219 C 29.496094 37.199219 30.015625 37.71875 30.015625 38.355469 L 30.015625 39.46875 L 31.484375 39.46875 L 31.484375 38.355469 C 31.484375 37.71875 32 37.199219 32.640625 37.199219 C 33.277344 37.199219 33.796875 37.71875 33.796875 38.355469 L 33.796875 39.46875 L 35.265625 39.46875 L 35.265625 38.355469 C 35.265625 37.71875 35.78125 37.199219 36.421875 37.199219 C 37.058594 37.199219 37.578125 37.71875 37.578125 38.355469 L 37.578125 39.46875 L 39.042969 39.46875 L 39.042969 38.355469 C 39.042969 37.71875 39.5625 37.199219 40.203125 37.199219 C 40.707031 37.199219 41.136719 37.527344 41.292969 37.980469 C 40.800781 38.585938 40.28125 39.167969 39.730469 39.722656 Z M 25.414062 41.53125 C 25.257812 42.117188 24.726562 42.550781 24.09375 42.550781 C 23.457031 42.550781 22.925781 42.117188 22.769531 41.53125 Z M 23.714844 40.375 C 23.820312 40.667969 24.097656 40.878906 24.429688 40.878906 C 24.785156 40.878906 25.085938 40.632812 25.164062 40.296875 C 25.386719 40.308594 25.609375 40.375 25.828125 40.558594 C 26.039062 40.734375 26.121094 41.039062 26.148438 41.191406 L 22.035156 41.191406 C 22.0625 41.039062 22.144531 40.734375 22.355469 40.558594 C 22.808594 40.179688 23.269531 40.304688 23.714844 40.375 Z M 23.179688 37.230469 L 23.628906 37.871094 L 24.085938 37 L 24.542969 37.871094 L 24.992188 37.230469 L 24.8125 38.339844 L 23.355469 38.339844 Z M 23.390625 38.683594 L 24.792969 38.683594 C 24.847656 38.8125 24.980469 39.136719 25.0625 39.324219 C 25.121094 39.457031 25.191406 39.597656 25.101562 39.742188 C 24.996094 39.910156 24.859375 39.886719 24.761719 39.878906 C 24.757812 39.878906 24.75 39.878906 24.746094 39.878906 C 24.648438 40.144531 24.394531 40.335938 24.09375 40.335938 C 23.789062 40.335938 23.535156 40.144531 23.4375 39.878906 C 23.433594 39.878906 23.425781 39.878906 23.421875 39.878906 C 23.324219 39.886719 23.1875 39.910156 23.082031 39.742188 C 22.992188 39.597656 23.0625 39.457031 23.121094 39.324219 C 23.203125 39.136719 23.335938 38.8125 23.390625 38.683594 Z M 25.792969 46.132812 C 25.230469 46.175781 24.664062 46.199219 24.089844 46.199219 C 23.519531 46.199219 22.953125 46.175781 22.390625 46.136719 L 21.972656 43.527344 L 22.453125 43.527344 C 22.335938 43.242188 22.125 42.742188 22.042969 42.539062 C 21.914062 42.214844 22.011719 41.996094 22.226562 41.914062 C 22.441406 41.832031 22.675781 41.949219 22.753906 42.226562 L 22.964844 43.019531 L 23.273438 43.019531 L 23.269531 43.527344 L 23.273438 43.527344 L 23.269531 43.628906 L 22.542969 43.628906 L 22.542969 43.96875 L 23.609375 43.96875 L 23.609375 43.527344 L 24.90625 43.527344 L 24.902344 43.019531 L 25.214844 43.019531 L 25.425781 42.226562 C 25.5 41.949219 25.742188 41.832031 25.953125 41.914062 C 26.171875 41.996094 26.269531 42.214844 26.140625 42.539062 C 26.101562 42.628906 26.046875 42.773438 25.984375 42.933594 L 25.695312 43.628906 L 24.917969 43.628906 L 24.917969 43.96875 L 25.921875 43.96875 L 26.105469 43.527344 L 26.210938 43.527344 Z M 21.597656 43.1875 L 20.578125 43.1875 L 20.578125 43.527344 L 21.597656 43.527344 L 21.597656 46.058594 C 16.484375 45.484375 11.902344 43.171875 8.453125 39.722656 C 7.957031 39.226562 7.484375 38.707031 7.039062 38.167969 C 7.128906 37.617188 7.605469 37.199219 8.175781 37.199219 C 8.816406 37.199219 9.332031 37.71875 9.332031 38.355469 L 9.332031 39.46875 L 10.800781 39.46875 L 10.800781 38.355469 C 10.800781 37.71875 11.320312 37.199219 11.957031 37.199219 C 12.597656 37.199219 13.113281 37.71875 13.113281 38.355469 L 13.113281 39.46875 L 14.582031 39.46875 L 14.582031 38.355469 C 14.582031 37.71875 15.101562 37.199219 15.738281 37.199219 C 16.378906 37.199219 16.894531 37.71875 16.894531 38.355469 L 16.894531 39.46875 L 18.363281 39.46875 L 18.363281 38.355469 C 18.363281 37.71875 18.882812 37.199219 19.519531 37.199219 C 20.160156 37.199219 20.675781 37.71875 20.675781 38.355469 L 20.675781 39.46875 L 21.597656 39.46875 Z M 24.089844 1.566406 C 11.65625 1.566406 1.574219 11.648438 1.574219 24.082031 C 1.574219 36.519531 11.65625 46.597656 24.089844 46.597656 C 36.527344 46.597656 46.605469 36.519531 46.605469 24.082031 C 46.605469 11.648438 36.527344 1.566406 24.089844 1.566406 Z M 24.457031 39.230469 L 24.648438 39.230469 L 24.648438 38.890625 L 24.1875 38.890625 L 24.1875 39.644531 L 24.457031 39.644531 Z M 7.476562 7.476562 C 3.226562 11.726562 0.59375 17.601562 0.59375 24.089844 C 0.59375 30.578125 3.226562 36.449219 7.476562 40.703125 C 11.730469 44.957031 17.601562 47.585938 24.089844 47.585938 C 30.582031 47.585938 36.453125 44.957031 40.707031 40.703125 C 44.957031 36.449219 47.585938 30.578125 47.585938 24.089844 C 47.585938 17.601562 44.957031 11.726562 40.707031 7.476562 C 36.453125 3.222656 30.582031 0.59375 24.089844 0.59375 C 17.601562 0.59375 11.730469 3.222656 7.476562 7.476562 Z M 0 24.089844 C 0 10.785156 10.785156 0 24.089844 0 C 37.394531 0 48.179688 10.785156 48.179688 24.089844 C 48.179688 37.394531 37.394531 48.179688 24.089844 48.179688 C 10.785156 48.179688 0 37.394531 0 24.089844 Z M 122.851562 21.339844 C 120.867188 21.339844 120.238281 20.621094 120.238281 18.53125 L 120.238281 13.988281 L 118.707031 13.988281 L 118.707031 12.203125 L 120.238281 12.203125 L 120.238281 9.445312 L 122.542969 8.835938 L 122.542969 12.203125 L 124.726562 12.203125 L 124.726562 13.988281 L 122.542969 13.988281 L 122.542969 17.917969 C 122.542969 19.070312 122.8125 19.394531 123.605469 19.394531 C 123.984375 19.394531 124.398438 19.339844 124.726562 19.25 L 124.726562 21.105469 C 124.148438 21.25 123.480469 21.339844 122.851562 21.339844 Z M 114.707031 21.160156 L 114.707031 12.203125 L 117.015625 12.203125 L 117.015625 21.160156 Z M 115.859375 11.050781 C 115.066406 11.050781 114.4375 10.421875 114.4375 9.644531 C 114.4375 8.886719 115.066406 8.257812 115.859375 8.257812 C 116.652344 8.257812 117.304688 8.871094 117.304688 9.644531 C 117.304688 10.421875 116.652344 11.050781 115.859375 11.050781 Z M 95.03125 13.699219 C 94.074219 13.699219 93.40625 14.402344 93.28125 15.484375 L 96.582031 15.484375 C 96.617188 14.367188 96.003906 13.699219 95.03125 13.699219 Z M 98.867188 16.007812 C 98.867188 16.3125 98.851562 16.671875 98.796875 17.050781 L 93.246094 17.050781 C 93.226562 18.726562 94.054688 19.539062 95.714844 19.539062 C 96.597656 19.539062 97.550781 19.339844 98.328125 18.980469 L 98.542969 20.765625 C 97.589844 21.140625 96.453125 21.339844 95.335938 21.339844 C 92.488281 21.339844 90.90625 19.917969 90.90625 16.761719 C 90.90625 14.023438 92.417969 12.007812 95.101562 12.007812 M 28.984375 3.40625 C 28.753906 3.40625 28.5625 3.597656 28.5625 3.828125 C 28.5625 4.0625 28.753906 4.25 28.984375 4.25 C 29.21875 4.25 29.40625 4.0625 29.40625 3.828125 C 29.40625 3.597656 29.21875 3.40625 28.984375 3.40625 Z M 29.316406 31.71875 L 29.316406 30.71875 C 29.316406 30.53125 29.164062 30.382812 28.980469 30.382812 C 28.792969 30.382812 28.640625 30.53125 28.640625 30.71875 L 28.640625 31.71875 Z M 29.195312 27.929688 L 29.195312 26.804688 C 29.195312 26.6875 29.101562 26.59375 28.984375 26.59375 C 28.867188 26.59375 28.777344 26.6875 28.777344 26.804688 L 28.777344 27.929688 Z M 29.195312 24.535156 L 29.195312 23.410156 C 29.195312 23.292969 29.101562 23.199219 28.984375 23.199219 C 28.867188 23.199219 28.777344 23.292969 28.777344 23.410156 L 28.777344 24.535156 Z M 29.375 15.546875 L 29.375 14.679688 C 29.371094 14.363281 29.21875 14.144531 28.984375 14.042969 C 28.753906 14.144531 28.597656 14.363281 28.597656 14.679688 L 28.597656 15.546875 Z M 29.375 19.867188 L 29.375 18.523438 C 29.371094 18.207031 29.21875 17.988281 28.984375 17.886719 C 28.753906 17.988281 28.597656 18.207031 28.597656 18.523438 L 28.597656 19.867188 Z M 19.195312 3.40625 C 18.960938 3.40625 18.773438 3.597656 18.773438 3.828125 C 18.773438 4.0625 18.960938 4.25 19.195312 4.25 C 19.425781 4.25 19.617188 4.0625 19.617188 3.828125 C 19.617188 3.597656 19.425781 3.40625 19.195312 3.40625 Z M 19.527344 31.71875 L 19.527344 30.71875 C 19.527344 30.53125 19.375 30.382812 19.1875 30.382812 C 19 30.382812 18.847656 30.53125 18.847656 30.71875 L 18.847656 31.71875 Z M 19.402344 27.929688 L 19.402344 26.804688 C 19.402344 26.6875 19.308594 26.59375 19.191406 26.59375 C 19.078125 26.59375 18.984375 26.6875 18.984375 26.804688 L 18.984375 27.929688 Z M 19.402344 24.535156 L 19.402344 23.410156 C 19.402344 23.292969 19.308594 23.199219 19.191406 23.199219 C 19.078125 23.199219 18.984375 23.292969 18.984375 23.410156 L 18.984375 24.535156 Z M 19.585938 15.546875 L 19.585938 14.679688 C 19.582031 14.363281 19.425781 14.144531 19.195312 14.042969 C 18.964844 14.144531 18.808594 14.363281 18.804688 14.679688 L 18.804688 15.546875 Z M 19.585938 19.867188 L 19.585938 18.523438 C 19.582031 18.207031 19.425781 17.988281 19.195312 17.886719 C 18.964844 17.988281 18.808594 18.207031 18.804688 18.523438 L 18.804688 19.867188 Z M 19.839844 42.941406 C 19.605469 42.941406 19.417969 43.128906 19.417969 43.363281 C 19.417969 43.59375 19.605469 43.785156 19.839844 43.785156 C 20.074219 43.785156 20.261719 43.59375 20.261719 43.363281 C 20.261719 43.128906 20.074219 42.941406 19.839844 42.941406 Z M 23.878906 19.851562 L 24.304688 19.851562 L 24.304688 18.9375 L 23.878906 18.9375 Z M 24.09375 8.074219 C 23.859375 8.074219 23.667969 8.261719 23.667969 8.496094 C 23.667969 8.730469 23.859375 8.917969 24.09375 8.917969 C 24.324219 8.917969 24.515625 8.730469 24.515625 8.496094 C 24.515625 8.261719 24.324219 8.074219 24.09375 8.074219 Z M 25.582031 31.972656 L 25.582031 30.785156 C 25.582031 30.5625 25.402344 30.382812 25.179688 30.382812 C 24.957031 30.382812 24.777344 30.5625 24.777344 30.785156 L 24.777344 31.972656 Z M 23.40625 31.972656 L 23.40625 30.785156 C 23.40625 30.5625 23.226562 30.382812 23.003906 30.382812 C 22.78125 30.382812 22.601562 30.5625 22.601562 30.785156 L 22.601562 31.972656 Z M 35.996094 41.773438 C 35.964844 41.773438 35.917969 41.769531 35.890625 41.765625 C 35.835938 41.753906 35.832031 41.738281 35.820312 41.683594 C 35.8125 41.601562 35.8125 41.4375 35.8125 41.246094 L 35.8125 40.886719 C 35.8125 40.578125 35.8125 40.523438 35.816406 40.460938 C 35.824219 40.390625 35.832031 40.375 35.882812 40.367188 C 35.90625 40.359375 35.917969 40.359375 35.941406 40.359375 C 35.960938 40.359375 35.992188 40.347656 35.992188 40.316406 C 35.984375 40.285156 35.957031 40.285156 35.929688 40.285156 C 35.847656 40.285156 35.714844 40.289062 35.660156 40.289062 C 35.601562 40.289062 35.460938 40.285156 35.382812 40.285156 C 35.347656 40.285156 35.320312 40.285156 35.3125 40.316406 C 35.3125 40.347656 35.34375 40.359375 35.363281 40.359375 C 35.390625 40.359375 35.414062 40.359375 35.433594 40.367188 C 35.476562 40.382812 35.488281 40.394531 35.496094 40.460938 C 35.496094 40.523438 35.496094 40.578125 35.496094 40.886719 L 35.496094 41.246094 C 35.496094 41.4375 35.496094 41.601562 35.488281 41.683594 C 35.476562 41.742188 35.472656 41.757812 35.4375 41.765625 C 35.421875 41.769531 35.398438 41.773438 35.367188 41.773438 C 35.339844 41.773438 35.320312 41.792969 35.320312 41.8125 C 35.320312 41.839844 35.347656 41.847656 35.375 41.847656 C 35.460938 41.847656 35.601562 41.84375 35.648438 41.84375 C 35.707031 41.84375 35.847656 41.847656 35.988281 41.847656 C 36.011719 41.847656 36.042969 41.84375 36.046875 41.8125 C 36.046875 41.789062 36.023438 41.773438 35.996094 41.773438 Z M 34.722656 41.773438 C 34.695312 41.773438 34.648438 41.769531 34.621094 41.765625 C 34.566406 41.753906 34.558594 41.738281 34.550781 41.683594 C 34.539062 41.601562 34.539062 41.4375 34.539062 41.246094 L 34.539062 40.886719 C 34.539062 40.578125 34.539062 40.523438 34.546875 40.460938 C 34.554688 40.390625 34.558594 40.375 34.609375 40.367188 C 34.632812 40.359375 34.648438 40.359375 34.667969 40.359375 C 34.691406 40.359375 34.71875 40.347656 34.71875 40.316406 C 34.714844 40.285156 34.683594 40.285156 34.660156 40.285156 C 34.578125 40.285156 34.441406 40.289062 34.390625 40.289062 C 34.332031 40.289062 34.1875 40.285156 34.109375 40.285156 C 34.078125 40.285156 34.046875 40.285156 34.042969 40.316406 C 34.042969 40.347656 34.070312 40.359375 34.09375 40.359375 C 34.117188 40.359375 34.144531 40.359375 34.164062 40.367188 C 34.203125 40.382812 34.21875 40.394531 34.222656 40.460938 C 34.226562 40.523438 34.226562 40.578125 34.226562 40.886719 L 34.226562 41.246094 C 34.226562 41.4375 34.226562 41.601562 34.21875 41.683594 C 34.207031 41.742188 34.203125 41.757812 34.167969 41.765625 C 34.152344 41.769531 34.128906 41.773438 34.097656 41.773438 C 34.066406 41.773438 34.046875 41.792969 34.046875 41.8125 C 34.046875 41.839844 34.078125 41.847656 34.105469 41.847656 C 34.1875 41.847656 34.332031 41.84375 34.378906 41.84375 C 34.433594 41.84375 34.578125 41.847656 34.71875 41.847656 C 34.742188 41.847656 34.773438 41.84375 34.773438 41.8125 C 34.773438 41.789062 34.753906 41.773438 34.722656 41.773438 Z M 33.453125 41.773438 C 33.421875 41.773438 33.375 41.769531 33.347656 41.765625 C 33.292969 41.753906 33.289062 41.738281 33.28125 41.683594 C 33.269531 41.601562 33.269531 41.4375 33.269531 41.246094 L 33.269531 40.886719 C 33.269531 40.578125 33.269531 40.523438 33.273438 40.460938 C 33.28125 40.390625 33.289062 40.375 33.339844 40.367188 C 33.363281 40.359375 33.378906 40.359375 33.398438 40.359375 C 33.417969 40.359375 33.449219 40.347656 33.449219 40.316406 C 33.445312 40.285156 33.414062 40.285156 33.390625 40.285156 C 33.308594 40.285156 33.171875 40.289062 33.121094 40.289062 C 33.0625 40.289062 32.917969 40.285156 32.839844 40.285156 C 32.808594 40.285156 32.777344 40.285156 32.773438 40.316406 C 32.773438 40.347656 32.800781 40.359375 32.824219 40.359375 C 32.847656 40.359375 32.871094 40.359375 32.894531 40.367188 C 32.933594 40.382812 32.945312 40.394531 32.953125 40.460938 C 32.957031 40.523438 32.957031 40.578125 32.957031 40.886719 L 32.957031 41.246094 C 32.957031 41.4375 32.957031 41.601562 32.945312 41.683594 C 32.9375 41.742188 32.929688 41.757812 32.898438 41.765625 C 32.878906 41.769531 32.855469 41.773438 32.828125 41.773438 C 32.796875 41.773438 32.777344 41.792969 32.777344 41.8125 C 32.777344 41.839844 32.808594 41.847656 32.835938 41.847656 C 32.917969 41.847656 33.0625 41.84375 33.109375 41.84375 C 33.164062 41.84375 33.308594 41.847656 33.445312 41.847656 C 33.472656 41.847656 33.5 41.84375 33.503906 41.8125 C 33.503906 41.789062 33.480469 41.773438 33.453125 41.773438 Z M 32.359375 41.773438 C 32.339844 41.773438 32.308594 41.769531 32.28125 41.761719 C 32.238281 41.746094 32.210938 41.730469 32.175781 41.6875 C 32.128906 41.625 31.796875 41.105469 31.71875 40.984375 L 32.058594 40.519531 C 32.121094 40.429688 32.160156 40.378906 32.199219 40.371094 C 32.226562 40.363281 32.253906 40.359375 32.269531 40.359375 C 32.296875 40.359375 32.320312 40.34375 32.320312 40.320312 C 32.320312 40.289062 32.289062 40.285156 32.265625 40.285156 C 32.1875 40.285156 32.101562 40.289062 32.0625 40.289062 C 32.023438 40.289062 31.921875 40.285156 31.84375 40.285156 C 31.8125 40.285156 31.78125 40.289062 31.78125 40.320312 C 31.78125 40.347656 31.804688 40.359375 31.824219 40.359375 C 31.839844 40.359375 31.867188 40.359375 31.882812 40.363281 C 31.902344 40.367188 31.910156 40.378906 31.910156 40.382812 C 31.910156 40.394531 31.902344 40.421875 31.886719 40.445312 C 31.855469 40.5 31.691406 40.738281 31.617188 40.847656 C 31.539062 40.714844 31.457031 40.582031 31.371094 40.429688 C 31.359375 40.410156 31.351562 40.382812 31.351562 40.378906 C 31.351562 40.375 31.351562 40.367188 31.367188 40.363281 C 31.382812 40.359375 31.402344 40.359375 31.414062 40.359375 C 31.433594 40.359375 31.464844 40.347656 31.464844 40.320312 C 31.460938 40.289062 31.429688 40.285156 31.402344 40.285156 C 31.324219 40.285156 31.195312 40.289062 31.167969 40.289062 C 31.070312 40.289062 30.898438 40.285156 30.847656 40.285156 C 30.824219 40.285156 30.792969 40.285156 30.789062 40.316406 C 30.789062 40.339844 30.804688 40.359375 30.828125 40.359375 C 30.847656 40.359375 30.878906 40.363281 30.910156 40.371094 C 30.980469 40.394531 31.019531 40.433594 31.070312 40.511719 L 31.433594 41.078125 L 31.03125 41.621094 C 30.957031 41.71875 30.929688 41.746094 30.875 41.761719 C 30.84375 41.769531 30.816406 41.773438 30.800781 41.773438 C 30.777344 41.773438 30.757812 41.789062 30.757812 41.8125 C 30.757812 41.835938 30.78125 41.847656 30.804688 41.847656 L 30.839844 41.847656 C 30.875 41.847656 30.976562 41.84375 31.015625 41.84375 C 31.066406 41.84375 31.207031 41.847656 31.21875 41.847656 L 31.257812 41.847656 C 31.285156 41.847656 31.316406 41.84375 31.316406 41.8125 C 31.3125 41.789062 31.292969 41.773438 31.273438 41.773438 C 31.257812 41.773438 31.242188 41.769531 31.226562 41.769531 C 31.214844 41.769531 31.203125 41.761719 31.203125 41.753906 L 31.203125 41.75 C 31.203125 41.734375 31.214844 41.707031 31.230469 41.679688 L 31.527344 41.226562 C 31.617188 41.375 31.726562 41.558594 31.84375 41.746094 C 31.847656 41.753906 31.847656 41.757812 31.847656 41.757812 C 31.847656 41.761719 31.84375 41.761719 31.84375 41.761719 C 31.824219 41.769531 31.804688 41.785156 31.804688 41.804688 C 31.808594 41.84375 31.84375 41.839844 31.894531 41.84375 C 32.066406 41.847656 32.230469 41.847656 32.28125 41.847656 L 32.34375 41.847656 C 32.371094 41.847656 32.398438 41.84375 32.402344 41.8125 C 32.402344 41.785156 32.378906 41.773438 32.359375 41.773438 Z M 30.582031 41.773438 C 30.5625 41.773438 30.53125 41.769531 30.503906 41.761719 C 30.460938 41.746094 30.433594 41.730469 30.398438 41.6875 C 30.351562 41.625 30.019531 41.105469 29.941406 40.984375 L 30.28125 40.519531 C 30.34375 40.429688 30.382812 40.378906 30.421875 40.371094 C 30.449219 40.363281 30.472656 40.359375 30.492188 40.359375 C 30.519531 40.359375 30.542969 40.34375 30.542969 40.320312 C 30.542969 40.289062 30.511719 40.285156 30.488281 40.285156 C 30.410156 40.285156 30.324219 40.289062 30.28125 40.289062 C 30.242188 40.289062 30.144531 40.285156 30.066406 40.285156 C 30.035156 40.285156 30.003906 40.289062 30.003906 40.320312 C 30.003906 40.347656 30.027344 40.359375 30.042969 40.359375 C 30.0625 40.359375 30.089844 40.359375 30.105469 40.363281 C 30.125 40.367188 30.132812 40.378906 30.128906 40.382812 C 30.132812 40.394531 30.125 40.421875 30.109375 40.445312 C 30.078125 40.5 29.914062 40.738281 29.839844 40.847656 C 29.761719 40.714844 29.679688 40.582031 29.59375 40.429688 C 29.582031 40.410156 29.574219 40.382812 29.574219 40.378906 C 29.574219 40.375 29.574219 40.371094 29.589844 40.363281 C 29.605469 40.359375 29.625 40.359375 29.636719 40.359375 C 29.65625 40.359375 29.683594 40.347656 29.6875 40.320312 C 29.683594 40.289062 29.652344 40.285156 29.625 40.285156 C 29.546875 40.285156 29.417969 40.289062 29.390625 40.289062 C 29.289062 40.289062 29.121094 40.285156 29.070312 40.285156 C 29.046875 40.285156 29.015625 40.285156 29.011719 40.316406 C 29.011719 40.339844 29.027344 40.359375 29.050781 40.359375 C 29.070312 40.359375 29.101562 40.363281 29.132812 40.371094 C 29.203125 40.394531 29.242188 40.433594 29.292969 40.511719 L 29.65625 41.078125 L 29.253906 41.621094 C 29.179688 41.71875 29.152344 41.746094 29.09375 41.761719 C 29.066406 41.769531 29.035156 41.773438 29.023438 41.773438 C 29 41.773438 28.976562 41.789062 28.976562 41.8125 C 28.976562 41.835938 29.003906 41.847656 29.027344 41.847656 L 29.0625 41.847656 C 29.097656 41.847656 29.199219 41.84375 29.238281 41.84375 C 29.289062 41.84375 29.425781 41.847656 29.441406 41.847656 L 29.476562 41.847656 C 29.503906 41.847656 29.535156 41.84375 29.539062 41.8125 C 29.535156 41.789062 29.515625 41.773438 29.496094 41.773438 C 29.480469 41.773438 29.464844 41.769531 29.449219 41.769531 C 29.4375 41.769531 29.425781 41.761719 29.425781 41.753906 C 29.425781 41.753906 29.425781 41.75 29.425781 41.75 C 29.425781 41.734375 29.433594 41.707031 29.453125 41.679688 L 29.746094 41.226562 C 29.839844 41.375 29.949219 41.558594 30.0625 41.746094 C 30.070312 41.753906 30.070312 41.757812 30.070312 41.757812 C 30.070312 41.761719 30.066406 41.761719 30.066406 41.761719 C 30.042969 41.769531 30.027344 41.785156 30.027344 41.804688 C 30.03125 41.84375 30.0625 41.839844 30.117188 41.84375 C 30.289062 41.847656 30.453125 41.847656 30.503906 41.847656 L 30.566406 41.847656 C 30.59375 41.847656 30.621094 41.84375 30.625 41.8125 C 30.625 41.785156 30.601562 41.773438 30.582031 41.773438 Z M 28.804688 41.773438 C 28.785156 41.773438 28.753906 41.769531 28.726562 41.761719 C 28.683594 41.746094 28.65625 41.730469 28.621094 41.6875 C 28.574219 41.625 28.242188 41.105469 28.160156 40.984375 L 28.503906 40.519531 C 28.566406 40.429688 28.605469 40.378906 28.644531 40.371094 C 28.671875 40.363281 28.695312 40.359375 28.714844 40.359375 C 28.738281 40.359375 28.765625 40.34375 28.765625 40.320312 C 28.765625 40.289062 28.734375 40.285156 28.710938 40.285156 C 28.632812 40.285156 28.542969 40.289062 28.507812 40.289062 C 28.464844 40.289062 28.367188 40.285156 28.285156 40.285156 C 28.257812 40.285156 28.226562 40.289062 28.222656 40.320312 C 28.226562 40.347656 28.25 40.359375 28.265625 40.359375 C 28.285156 40.359375 28.3125 40.359375 28.328125 40.363281 C 28.347656 40.367188 28.351562 40.378906 28.351562 40.382812 C 28.351562 40.394531 28.347656 40.421875 28.332031 40.445312 C 28.296875 40.5 28.136719 40.738281 28.0625 40.847656 C 27.984375 40.714844 27.902344 40.582031 27.816406 40.429688 C 27.804688 40.410156 27.796875 40.382812 27.796875 40.378906 C 27.796875 40.375 27.796875 40.367188 27.8125 40.363281 C 27.828125 40.359375 27.847656 40.359375 27.859375 40.359375 C 27.878906 40.359375 27.90625 40.347656 27.90625 40.320312 C 27.90625 40.289062 27.875 40.285156 27.847656 40.285156 C 27.769531 40.285156 27.640625 40.289062 27.613281 40.289062 C 27.511719 40.289062 27.34375 40.285156 27.292969 40.285156 C 27.269531 40.285156 27.238281 40.285156 27.234375 40.316406 C 27.234375 40.339844 27.25 40.359375 27.273438 40.359375 C 27.289062 40.359375 27.324219 40.363281 27.355469 40.371094 C 27.425781 40.394531 27.464844 40.433594 27.515625 40.511719 L 27.878906 41.078125 L 27.476562 41.621094 C 27.402344 41.71875 27.375 41.746094 27.316406 41.761719 C 27.289062 41.769531 27.257812 41.773438 27.246094 41.773438 C 27.222656 41.773438 27.199219 41.789062 27.199219 41.8125 C 27.199219 41.835938 27.222656 41.847656 27.246094 41.847656 L 27.285156 41.847656 C 27.320312 41.847656 27.421875 41.84375 27.460938 41.84375 C 27.511719 41.84375 27.648438 41.847656 27.664062 41.847656 L 27.699219 41.847656 C 27.726562 41.847656 27.757812 41.84375 27.761719 41.8125 C 27.757812 41.789062 27.738281 41.773438 27.71875 41.773438 C 27.703125 41.773438 27.6875 41.769531 27.671875 41.769531 C 27.660156 41.769531 27.648438 41.761719 27.648438 41.753906 C 27.648438 41.753906 27.648438 41.75 27.648438 41.75 C 27.648438 41.734375 27.65625 41.707031 27.675781 41.679688 L 27.96875 41.226562 C 28.0625 41.375 28.171875 41.558594 28.285156 41.746094 C 28.289062 41.753906 28.289062 41.757812 28.289062 41.757812 C 28.292969 41.761719 28.289062 41.761719 28.289062 41.761719 C 28.265625 41.769531 28.246094 41.785156 28.246094 41.804688 C 28.253906 41.84375 28.285156 41.839844 28.339844 41.84375 C 28.511719 41.847656 28.675781 41.847656 28.726562 41.847656 L 28.789062 41.847656 C 28.8125 41.847656 28.84375 41.84375 28.847656 41.8125 C 28.84375 41.785156 28.824219 41.773438 28.804688 41.773438 Z M 20.707031 41.433594 C 20.679688 41.429688 20.664062 41.457031 20.664062 41.488281 C 20.65625 41.519531 20.628906 41.578125 20.597656 41.613281 C 20.519531 41.699219 20.421875 41.714844 20.238281 41.714844 C 19.964844 41.714844 19.601562 41.492188 19.601562 41.023438 C 19.601562 40.828125 19.640625 40.636719 19.789062 40.507812 C 19.882812 40.433594 19.992188 40.398438 20.171875 40.398438 C 20.363281 40.398438 20.5 40.449219 20.566406 40.511719 C 20.613281 40.5625 20.640625 40.628906 20.640625 40.691406 C 20.640625 40.714844 20.648438 40.746094 20.679688 40.75 C 20.71875 40.746094 20.722656 40.710938 20.726562 40.683594 C 20.726562 40.640625 20.726562 40.53125 20.734375 40.464844 C 20.738281 40.394531 20.742188 40.371094 20.742188 40.351562 C 20.746094 40.332031 20.722656 40.3125 20.695312 40.3125 C 20.636719 40.304688 20.566406 40.289062 20.488281 40.277344 C 20.394531 40.265625 20.3125 40.253906 20.179688 40.253906 C 19.867188 40.253906 19.660156 40.339844 19.503906 40.472656 C 19.300781 40.65625 19.253906 40.898438 19.253906 41.042969 C 19.253906 41.238281 19.308594 41.476562 19.523438 41.652344 C 19.71875 41.816406 19.964844 41.875 20.253906 41.875 C 20.390625 41.875 20.546875 41.863281 20.636719 41.828125 C 20.671875 41.816406 20.695312 41.796875 20.703125 41.757812 C 20.722656 41.6875 20.746094 41.511719 20.746094 41.484375 C 20.746094 41.464844 20.738281 41.433594 20.707031 41.433594 Z M 19.03125 41.433594 C 19 41.429688 18.988281 41.457031 18.984375 41.488281 C 18.980469 41.519531 18.953125 41.578125 18.917969 41.613281 C 18.839844 41.699219 18.746094 41.714844 18.558594 41.714844 C 18.285156 41.714844 17.925781 41.492188 17.925781 41.023438 C 17.925781 40.828125 17.960938 40.636719 18.109375 40.507812 C 18.203125 40.433594 18.3125 40.398438 18.496094 40.398438 C 18.683594 40.398438 18.824219 40.449219 18.890625 40.511719 C 18.9375 40.5625 18.960938 40.628906 18.964844 40.691406 C 18.964844 40.714844 18.96875 40.746094 19.003906 40.75 C 19.039062 40.746094 19.046875 40.710938 19.046875 40.683594 C 19.050781 40.640625 19.050781 40.53125 19.054688 40.464844 C 19.058594 40.394531 19.066406 40.371094 19.066406 40.351562 C 19.066406 40.332031 19.046875 40.3125 19.019531 40.3125 C 18.957031 40.304688 18.890625 40.289062 18.808594 40.277344 C 18.714844 40.265625 18.632812 40.253906 18.503906 40.253906 C 18.1875 40.253906 17.980469 40.339844 17.828125 40.472656 C 17.621094 40.65625 17.578125 40.898438 17.578125 41.042969 C 17.574219 41.238281 17.632812 41.476562 17.84375 41.652344 C 18.039062 41.816406 18.285156 41.875 18.574219 41.875 C 18.710938 41.875 18.871094 41.863281 18.960938 41.828125 C 18.996094 41.816406 19.015625 41.796875 19.023438 41.757812 C 19.046875 41.6875 19.070312 41.511719 19.070312 41.484375 C 19.070312 41.464844 19.058594 41.433594 19.03125 41.433594 Z M 17.351562 41.433594 C 17.324219 41.429688 17.308594 41.457031 17.308594 41.488281 C 17.300781 41.519531 17.273438 41.578125 17.242188 41.613281 C 17.164062 41.699219 17.066406 41.714844 16.882812 41.714844 C 16.609375 41.714844 16.246094 41.492188 16.246094 41.023438 C 16.246094 40.828125 16.285156 40.636719 16.433594 40.507812 C 16.523438 40.433594 16.636719 40.398438 16.816406 40.398438 C 17.007812 40.398438 17.144531 40.449219 17.210938 40.511719 C 17.261719 40.5625 17.285156 40.628906 17.285156 40.691406 C 17.285156 40.714844 17.289062 40.746094 17.324219 40.75 C 17.359375 40.746094 17.367188 40.710938 17.371094 40.683594 C 17.371094 40.640625 17.371094 40.53125 17.378906 40.464844 C 17.382812 40.394531 17.386719 40.371094 17.386719 40.351562 C 17.390625 40.332031 17.367188 40.3125 17.339844 40.3125 C 17.28125 40.304688 17.210938 40.289062 17.132812 40.277344 C 17.035156 40.265625 16.957031 40.253906 16.824219 40.253906 C 16.511719 40.253906 16.304688 40.339844 16.148438 40.472656 C 15.945312 40.65625 15.898438 40.898438 15.898438 41.042969 C 15.898438 41.238281 15.953125 41.476562 16.164062 41.652344 C 16.359375 41.816406 16.609375 41.875 16.898438 41.875 C 17.03125 41.875 17.191406 41.863281 17.28125 41.828125 C 17.320312 41.816406 17.339844 41.796875 17.347656 41.757812 C 17.367188 41.6875 17.390625 41.511719 17.390625 41.484375 C 17.390625 41.464844 17.382812 41.433594 17.351562 41.433594 Z M 15.367188 41.105469 C 15.367188 41.3125 15.324219 41.484375 15.195312 41.59375 C 15.074219 41.695312 14.9375 41.726562 14.75 41.726562 C 14.589844 41.726562 14.511719 41.683594 14.488281 41.652344 C 14.476562 41.640625 14.46875 41.566406 14.46875 41.519531 C 14.46875 41.480469 14.464844 41.324219 14.464844 41.109375 L 14.464844 40.855469 C 14.464844 40.695312 14.464844 40.53125 14.46875 40.460938 C 14.46875 40.441406 14.46875 40.445312 14.480469 40.4375 C 14.492188 40.429688 14.5625 40.421875 14.605469 40.421875 C 14.769531 40.421875 14.992188 40.445312 15.179688 40.613281 C 15.269531 40.6875 15.367188 40.851562 15.367188 41.105469 Z M 15.5 40.519531 C 15.265625 40.28125 14.90625 40.285156 14.644531 40.285156 C 14.519531 40.285156 14.367188 40.289062 14.304688 40.289062 C 14.246094 40.289062 14.109375 40.285156 14.003906 40.285156 C 13.972656 40.285156 13.941406 40.285156 13.9375 40.320312 C 13.9375 40.347656 13.96875 40.359375 13.988281 40.359375 C 14.019531 40.359375 14.054688 40.359375 14.070312 40.363281 C 14.132812 40.386719 14.140625 40.394531 14.148438 40.460938 C 14.148438 40.523438 14.148438 40.578125 14.148438 40.886719 L 14.148438 41.242188 C 14.148438 41.429688 14.148438 41.589844 14.140625 41.671875 C 14.132812 41.734375 14.121094 41.757812 14.089844 41.765625 C 14.074219 41.769531 14.050781 41.773438 14.019531 41.773438 C 13.988281 41.773438 13.96875 41.792969 13.96875 41.8125 C 13.972656 41.839844 14 41.847656 14.027344 41.847656 C 14.070312 41.847656 14.125 41.847656 14.171875 41.84375 C 14.222656 41.84375 14.269531 41.84375 14.292969 41.84375 C 14.34375 41.84375 14.417969 41.847656 14.503906 41.855469 C 14.585938 41.859375 14.675781 41.867188 14.753906 41.867188 C 15.144531 41.867188 15.371094 41.722656 15.46875 41.621094 C 15.589844 41.503906 15.703125 41.304688 15.703125 41.046875 C 15.703125 40.800781 15.605469 40.628906 15.5 40.519531 Z M 13.789062 41.773438 C 13.765625 41.773438 13.734375 41.769531 13.675781 41.753906 C 13.625 41.738281 13.605469 41.695312 13.585938 41.566406 L 13.394531 40.316406 C 13.386719 40.269531 13.363281 40.242188 13.332031 40.238281 C 13.300781 40.238281 13.28125 40.261719 13.261719 40.296875 L 12.714844 41.410156 L 12.167969 40.3125 C 12.140625 40.257812 12.117188 40.238281 12.089844 40.238281 C 12.058594 40.238281 12.035156 40.269531 12.03125 40.304688 L 11.824219 41.628906 C 11.816406 41.695312 11.792969 41.765625 11.753906 41.769531 C 11.71875 41.773438 11.707031 41.773438 11.691406 41.773438 C 11.664062 41.773438 11.640625 41.785156 11.640625 41.808594 C 11.640625 41.84375 11.675781 41.847656 11.695312 41.847656 C 11.761719 41.847656 11.863281 41.84375 11.902344 41.84375 C 11.941406 41.84375 12.035156 41.847656 12.125 41.847656 C 12.152344 41.847656 12.191406 41.84375 12.191406 41.808594 C 12.1875 41.78125 12.164062 41.773438 12.140625 41.773438 C 12.125 41.773438 12.105469 41.769531 12.070312 41.761719 C 12.035156 41.753906 12.019531 41.746094 12.019531 41.71875 C 12.019531 41.6875 12.023438 41.664062 12.027344 41.628906 L 12.121094 40.882812 C 12.191406 41.023438 12.296875 41.242188 12.3125 41.273438 C 12.335938 41.335938 12.503906 41.640625 12.550781 41.734375 C 12.585938 41.796875 12.605469 41.84375 12.652344 41.847656 C 12.691406 41.84375 12.703125 41.816406 12.75 41.722656 L 13.179688 40.855469 L 13.289062 41.6875 C 13.292969 41.707031 13.292969 41.722656 13.292969 41.730469 C 13.292969 41.757812 13.289062 41.753906 13.292969 41.757812 C 13.277344 41.761719 13.257812 41.769531 13.257812 41.792969 C 13.261719 41.824219 13.285156 41.832031 13.335938 41.835938 C 13.417969 41.839844 13.714844 41.847656 13.769531 41.847656 C 13.800781 41.847656 13.835938 41.847656 13.839844 41.808594 C 13.839844 41.78125 13.8125 41.773438 13.789062 41.773438 Z M 40.503906 30.429688 C 40.550781 30.382812 40.570312 30.382812 40.648438 30.414062 C 40.835938 30.496094 41.035156 30.597656 41.089844 30.625 C 41.140625 30.652344 41.171875 30.679688 41.160156 30.707031 C 41.148438 30.738281 41.113281 30.726562 41.085938 30.714844 C 41.042969 30.695312 40.964844 30.679688 40.898438 30.671875 C 40.613281 30.636719 40.433594 30.796875 40.339844 31.011719 C 40.207031 31.320312 40.351562 31.5625 40.53125 31.640625 C 40.699219 31.710938 40.882812 31.730469 41.226562 31.539062 L 41.417969 31.4375 C 41.878906 31.1875 42.171875 31.160156 42.453125 31.28125 C 42.828125 31.445312 42.964844 31.875 42.757812 32.351562 C 42.660156 32.578125 42.566406 32.707031 42.503906 32.785156 C 42.480469 32.8125 42.464844 32.824219 42.441406 32.816406 C 42.394531 32.796875 42.300781 32.738281 42.035156 32.621094 C 41.960938 32.589844 41.933594 32.566406 41.949219 32.539062 C 41.957031 32.515625 41.984375 32.515625 42.023438 32.535156 C 42.054688 32.546875 42.167969 32.574219 42.289062 32.542969 C 42.378906 32.519531 42.523438 32.464844 42.617188 32.242188 C 42.730469 31.988281 42.648438 31.769531 42.441406 31.679688 C 42.285156 31.609375 42.128906 31.636719 41.789062 31.828125 L 41.675781 31.894531 C 41.183594 32.175781 40.886719 32.21875 40.558594 32.078125 C 40.359375 31.992188 40.15625 31.816406 40.101562 31.5 C 40.066406 31.277344 40.117188 31.074219 40.195312 30.890625 C 40.28125 30.691406 40.371094 30.546875 40.503906 30.429688 Z M 42.703125 29.109375 C 43.25 29.265625 43.351562 29.292969 43.46875 29.320312 C 43.59375 29.347656 43.664062 29.328125 43.707031 29.253906 C 43.726562 29.21875 43.742188 29.171875 43.757812 29.128906 C 43.765625 29.09375 43.78125 29.074219 43.808594 29.082031 C 43.832031 29.085938 43.828125 29.117188 43.8125 29.175781 C 43.773438 29.3125 43.699219 29.535156 43.667969 29.640625 C 43.644531 29.730469 43.59375 29.945312 43.554688 30.082031 C 43.542969 30.128906 43.527344 30.15625 43.507812 30.148438 C 43.476562 30.140625 43.476562 30.117188 43.488281 30.082031 C 43.496094 30.046875 43.503906 30.015625 43.507812 29.96875 C 43.515625 29.867188 43.464844 29.824219 43.339844 29.78125 C 43.226562 29.738281 43.125 29.710938 42.578125 29.558594 L 41.945312 29.378906 C 41.597656 29.277344 41.3125 29.199219 41.152344 29.167969 C 41.054688 29.152344 40.980469 29.160156 40.9375 29.261719 C 40.914062 29.3125 40.886719 29.390625 40.871094 29.441406 C 40.859375 29.484375 40.84375 29.496094 40.824219 29.492188 C 40.800781 29.484375 40.796875 29.453125 40.808594 29.414062 C 40.875 29.175781 40.949219 28.953125 40.976562 28.855469 C 41 28.773438 41.054688 28.542969 41.09375 28.398438 C 41.109375 28.351562 41.125 28.332031 41.152344 28.335938 C 41.167969 28.34375 41.175781 28.359375 41.164062 28.402344 C 41.148438 28.457031 41.144531 28.503906 41.140625 28.535156 C 41.136719 28.613281 41.191406 28.652344 41.292969 28.691406 C 41.4375 28.753906 41.722656 28.832031 42.070312 28.929688 Z M 41.585938 25.9375 C 41.621094 25.878906 41.640625 25.871094 41.71875 25.882812 C 41.925781 25.914062 42.144531 25.960938 42.203125 25.972656 C 42.257812 25.984375 42.296875 26 42.292969 26.03125 C 42.289062 26.0625 42.253906 26.0625 42.226562 26.058594 C 42.175781 26.050781 42.097656 26.054688 42.03125 26.0625 C 41.746094 26.105469 41.613281 26.308594 41.582031 26.539062 C 41.535156 26.871094 41.734375 27.066406 41.933594 27.097656 C 42.113281 27.121094 42.292969 27.089844 42.578125 26.820312 L 42.734375 26.667969 C 43.109375 26.304688 43.390625 26.203125 43.691406 26.246094 C 44.097656 26.304688 44.339844 26.6875 44.265625 27.203125 C 44.230469 27.441406 44.171875 27.59375 44.132812 27.683594 C 44.121094 27.71875 44.105469 27.734375 44.082031 27.730469 C 44.03125 27.722656 43.929688 27.691406 43.640625 27.652344 C 43.558594 27.640625 43.53125 27.625 43.535156 27.59375 C 43.539062 27.570312 43.5625 27.5625 43.605469 27.566406 C 43.640625 27.570312 43.757812 27.570312 43.863281 27.507812 C 43.941406 27.460938 44.070312 27.371094 44.101562 27.128906 C 44.144531 26.855469 44.007812 26.664062 43.785156 26.632812 C 43.613281 26.609375 43.472656 26.675781 43.195312 26.949219 L 43.101562 27.042969 C 42.703125 27.441406 42.425781 27.5625 42.074219 27.511719 C 41.859375 27.484375 41.613281 27.363281 41.476562 27.074219 C 41.386719 26.871094 41.382812 26.660156 41.410156 26.460938 C 41.441406 26.246094 41.492188 26.085938 41.585938 25.9375 Z M 42.085938 22.484375 C 41.796875 22.503906 41.699219 22.554688 41.675781 22.632812 C 41.65625 22.695312 41.65625 22.765625 41.65625 22.828125 C 41.660156 22.867188 41.652344 22.890625 41.628906 22.890625 C 41.597656 22.890625 41.589844 22.859375 41.589844 22.804688 C 41.582031 22.5625 41.585938 22.414062 41.585938 22.34375 C 41.582031 22.308594 41.566406 22.132812 41.558594 21.9375 C 41.554688 21.890625 41.558594 21.855469 41.59375 21.855469 C 41.613281 21.855469 41.625 21.878906 41.625 21.914062 C 41.628906 21.964844 41.632812 22.03125 41.648438 22.082031 C 41.683594 22.179688 41.792969 22.1875 42.117188 22.179688 L 44.332031 22.136719 C 44.40625 22.132812 44.460938 22.144531 44.460938 22.179688 C 44.460938 22.222656 44.414062 22.257812 44.347656 22.324219 C 44.300781 22.371094 43.714844 22.960938 43.191406 23.523438 C 42.945312 23.789062 42.425781 24.3125 42.367188 24.375 L 42.367188 24.394531 L 44.042969 24.300781 C 44.273438 24.289062 44.34375 24.25 44.378906 24.160156 C 44.398438 24.101562 44.394531 24.011719 44.390625 23.960938 C 44.390625 23.917969 44.402344 23.902344 44.421875 23.898438 C 44.453125 23.898438 44.460938 23.941406 44.460938 23.996094 C 44.46875 24.191406 44.464844 24.371094 44.464844 24.449219 C 44.46875 24.488281 44.484375 24.632812 44.488281 24.816406 C 44.492188 24.863281 44.488281 24.902344 44.460938 24.902344 C 44.4375 24.902344 44.425781 24.878906 44.421875 24.835938 C 44.421875 24.796875 44.421875 24.769531 44.40625 24.722656 C 44.375 24.621094 44.292969 24.59375 44.085938 24.597656 L 41.726562 24.640625 C 41.644531 24.640625 41.609375 24.628906 41.605469 24.59375 C 41.605469 24.554688 41.644531 24.507812 41.683594 24.464844 C 41.902344 24.222656 42.375 23.726562 42.746094 23.324219 C 43.136719 22.902344 43.585938 22.46875 43.65625 22.398438 L 43.65625 22.390625 Z M 42.777344 19.292969 C 43.332031 19.167969 43.433594 19.144531 43.546875 19.113281 C 43.667969 19.078125 43.722656 19.035156 43.71875 18.910156 C 43.71875 18.878906 43.710938 18.816406 43.699219 18.765625 C 43.691406 18.722656 43.691406 18.699219 43.71875 18.695312 C 43.742188 18.6875 43.757812 18.710938 43.769531 18.765625 C 43.789062 18.867188 43.8125 18.972656 43.832031 19.0625 C 43.847656 19.160156 43.863281 19.246094 43.875 19.296875 C 43.902344 19.414062 44.066406 20.136719 44.085938 20.207031 C 44.105469 20.273438 44.128906 20.332031 44.140625 20.359375 C 44.148438 20.375 44.164062 20.394531 44.167969 20.414062 C 44.171875 20.433594 44.160156 20.4375 44.140625 20.445312 C 44.117188 20.449219 44.070312 20.441406 43.898438 20.46875 C 43.859375 20.472656 43.699219 20.5 43.652344 20.503906 C 43.632812 20.503906 43.609375 20.5 43.605469 20.476562 C 43.597656 20.449219 43.613281 20.4375 43.648438 20.429688 C 43.671875 20.425781 43.734375 20.40625 43.773438 20.378906 C 43.835938 20.339844 43.871094 20.292969 43.851562 20.105469 C 43.84375 20.042969 43.765625 19.65625 43.75 19.585938 C 43.746094 19.566406 43.730469 19.5625 43.707031 19.566406 L 42.785156 19.773438 C 42.757812 19.78125 42.742188 19.789062 42.75 19.808594 C 42.765625 19.890625 42.859375 20.308594 42.886719 20.390625 C 42.914062 20.476562 42.9375 20.53125 42.980469 20.554688 C 43.015625 20.574219 43.039062 20.582031 43.042969 20.601562 C 43.046875 20.617188 43.039062 20.628906 43.019531 20.632812 C 42.996094 20.640625 42.933594 20.636719 42.746094 20.664062 C 42.671875 20.675781 42.523438 20.699219 42.496094 20.707031 C 42.46875 20.710938 42.429688 20.722656 42.421875 20.6875 C 42.414062 20.664062 42.429688 20.652344 42.445312 20.648438 C 42.480469 20.636719 42.53125 20.625 42.574219 20.601562 C 42.644531 20.570312 42.6875 20.503906 42.671875 20.367188 C 42.664062 20.296875 42.585938 19.933594 42.566406 19.847656 C 42.5625 19.828125 42.546875 19.828125 42.523438 19.832031 L 42.234375 19.898438 C 42.113281 19.925781 41.777344 19.996094 41.671875 20.023438 C 41.421875 20.089844 41.378906 20.160156 41.460938 20.53125 C 41.484375 20.625 41.519531 20.78125 41.582031 20.863281 C 41.648438 20.949219 41.734375 20.976562 41.890625 20.96875 C 41.929688 20.964844 41.949219 20.96875 41.953125 20.996094 C 41.960938 21.023438 41.929688 21.03125 41.894531 21.039062 C 41.808594 21.058594 41.554688 21.085938 41.480469 21.082031 C 41.378906 21.078125 41.371094 21.046875 41.339844 20.90625 C 41.277344 20.632812 41.242188 20.433594 41.210938 20.273438 C 41.179688 20.117188 41.160156 20 41.136719 19.890625 C 41.125 19.851562 41.105469 19.769531 41.085938 19.683594 C 41.066406 19.601562 41.035156 19.507812 41.019531 19.433594 C 41.011719 19.386719 41.015625 19.359375 41.039062 19.351562 C 41.058594 19.347656 41.074219 19.359375 41.082031 19.40625 C 41.09375 19.460938 41.113281 19.503906 41.128906 19.535156 C 41.15625 19.601562 41.242188 19.601562 41.351562 19.59375 C 41.507812 19.578125 41.796875 19.511719 42.132812 19.4375 Z M 40.3125 16.492188 C 40.472656 16.03125 40.820312 15.78125 41.15625 15.640625 C 41.390625 15.542969 41.828125 15.449219 42.269531 15.652344 C 42.601562 15.808594 42.875 16.078125 43.089844 16.59375 C 43.175781 16.808594 43.214844 16.941406 43.261719 17.109375 C 43.296875 17.25 43.3125 17.371094 43.34375 17.480469 C 43.355469 17.519531 43.34375 17.539062 43.324219 17.546875 C 43.296875 17.558594 43.25 17.566406 43.128906 17.609375 C 43.011719 17.648438 42.824219 17.730469 42.75 17.753906 C 42.695312 17.773438 42.664062 17.777344 42.652344 17.746094 C 42.640625 17.71875 42.667969 17.699219 42.714844 17.679688 C 42.820312 17.632812 42.921875 17.535156 42.976562 17.414062 C 43.050781 17.25 43.03125 16.941406 42.902344 16.621094 C 42.777344 16.324219 42.621094 16.15625 42.417969 16.0625 C 42.082031 15.90625 41.726562 15.976562 41.390625 16.113281 C 40.570312 16.453125 40.421875 17.25 40.613281 17.710938 C 40.738281 18.019531 40.851562 18.191406 41.066406 18.265625 C 41.15625 18.296875 41.277344 18.300781 41.34375 18.285156 C 41.402344 18.273438 41.417969 18.277344 41.429688 18.304688 C 41.441406 18.328125 41.421875 18.34375 41.394531 18.355469 C 41.351562 18.371094 41.035156 18.457031 40.902344 18.46875 C 40.835938 18.476562 40.8125 18.46875 40.765625 18.421875 C 40.652344 18.304688 40.519531 18.054688 40.425781 17.832031 C 40.230469 17.359375 40.171875 16.917969 40.3125 16.492188 Z M 40.589844 14.113281 C 41.082031 13.824219 41.171875 13.769531 41.269531 13.703125 C 41.375 13.632812 41.410156 13.566406 41.386719 13.488281 C 41.375 13.445312 41.351562 13.402344 41.332031 13.363281 C 41.3125 13.332031 41.308594 13.308594 41.332031 13.292969 C 41.351562 13.28125 41.375 13.304688 41.40625 13.355469 C 41.476562 13.476562 41.585938 13.6875 41.640625 13.78125 C 41.6875 13.859375 41.808594 14.042969 41.882812 14.167969 C 41.90625 14.207031 41.914062 14.238281 41.898438 14.25 C 41.871094 14.265625 41.851562 14.25 41.835938 14.21875 C 41.816406 14.183594 41.796875 14.160156 41.769531 14.125 C 41.699219 14.046875 41.628906 14.054688 41.515625 14.113281 C 41.40625 14.167969 41.316406 14.222656 40.828125 14.511719 L 40.261719 14.84375 C 39.949219 15.03125 39.691406 15.179688 39.5625 15.273438 C 39.480469 15.335938 39.433594 15.390625 39.480469 15.496094 C 39.5 15.546875 39.535156 15.621094 39.5625 15.667969 C 39.585938 15.703125 39.585938 15.726562 39.570312 15.734375 C 39.546875 15.75 39.519531 15.726562 39.5 15.691406 C 39.375 15.480469 39.265625 15.273438 39.214844 15.183594 C 39.167969 15.109375 39.039062 14.914062 38.964844 14.785156 C 38.941406 14.742188 38.9375 14.714844 38.960938 14.699219 C 38.976562 14.691406 38.992188 14.699219 39.015625 14.738281 C 39.042969 14.785156 39.074219 14.820312 39.097656 14.84375 C 39.148438 14.902344 39.214844 14.890625 39.3125 14.84375 C 39.457031 14.78125 39.710938 14.628906 40.023438 14.445312 Z M 38.65625 11.910156 C 38.625 11.933594 38.617188 11.949219 38.625 11.976562 C 38.652344 12.054688 38.714844 12.148438 38.773438 12.222656 C 38.867188 12.339844 38.910156 12.367188 38.988281 12.390625 C 39.125 12.425781 39.328125 12.402344 39.566406 12.210938 C 39.980469 11.875 39.878906 11.507812 39.738281 11.335938 C 39.679688 11.261719 39.636719 11.210938 39.601562 11.1875 C 39.582031 11.171875 39.566406 11.175781 39.542969 11.195312 Z M 38.609375 11.378906 C 39.050781 11.023438 39.132812 10.957031 39.222656 10.875 C 39.316406 10.792969 39.34375 10.730469 39.289062 10.617188 C 39.273438 10.589844 39.238281 10.539062 39.207031 10.496094 C 39.179688 10.464844 39.171875 10.441406 39.191406 10.425781 C 39.210938 10.410156 39.234375 10.425781 39.269531 10.46875 C 39.394531 10.625 39.53125 10.8125 39.582031 10.875 C 39.660156 10.972656 39.847656 11.1875 39.921875 11.28125 C 40.070312 11.464844 40.207031 11.671875 40.226562 11.917969 C 40.238281 12.042969 40.183594 12.277344 39.988281 12.4375 C 39.773438 12.609375 39.5 12.679688 39.027344 12.578125 C 38.90625 13.097656 38.808594 13.507812 38.769531 13.824219 C 38.730469 14.125 38.804688 14.261719 38.832031 14.3125 C 38.851562 14.347656 38.871094 14.375 38.890625 14.398438 C 38.910156 14.421875 38.910156 14.441406 38.894531 14.453125 C 38.871094 14.472656 38.847656 14.457031 38.820312 14.421875 L 38.597656 14.144531 C 38.46875 13.980469 38.421875 13.898438 38.402344 13.789062 C 38.367188 13.609375 38.417969 13.386719 38.511719 13.042969 C 38.578125 12.800781 38.664062 12.503906 38.679688 12.433594 C 38.683594 12.402344 38.671875 12.382812 38.65625 12.363281 L 38.460938 12.105469 C 38.449219 12.089844 38.433594 12.085938 38.417969 12.101562 L 38.375 12.132812 C 38.105469 12.351562 37.875 12.539062 37.765625 12.648438 C 37.6875 12.726562 37.636719 12.796875 37.695312 12.894531 C 37.726562 12.941406 37.773438 13.011719 37.800781 13.046875 C 37.820312 13.066406 37.820312 13.085938 37.804688 13.097656 C 37.785156 13.113281 37.757812 13.101562 37.726562 13.0625 C 37.59375 12.894531 37.425781 12.671875 37.390625 12.628906 C 37.347656 12.574219 37.191406 12.398438 37.097656 12.28125 C 37.066406 12.242188 37.058594 12.214844 37.078125 12.199219 C 37.09375 12.1875 37.113281 12.191406 37.140625 12.226562 C 37.175781 12.269531 37.210938 12.300781 37.234375 12.320312 C 37.292969 12.371094 37.371094 12.332031 37.464844 12.277344 C 37.597656 12.195312 37.828125 12.007812 38.097656 11.792969 Z M 35.773438 8.710938 C 36.144531 8.277344 36.214844 8.199219 36.285156 8.101562 C 36.363281 8 36.378906 7.9375 36.300781 7.835938 C 36.285156 7.8125 36.238281 7.765625 36.199219 7.734375 C 36.167969 7.707031 36.15625 7.6875 36.171875 7.667969 C 36.191406 7.644531 36.214844 7.65625 36.257812 7.695312 C 36.40625 7.824219 36.578125 7.984375 36.664062 8.058594 C 36.730469 8.117188 36.917969 8.261719 37.019531 8.347656 C 37.0625 8.386719 37.078125 8.410156 37.058594 8.429688 C 37.042969 8.449219 37.023438 8.441406 36.992188 8.414062 C 36.960938 8.386719 36.941406 8.375 36.902344 8.351562 C 36.816406 8.300781 36.75 8.332031 36.660156 8.425781 C 36.578125 8.511719 36.507812 8.589844 36.136719 9.019531 L 35.796875 9.417969 C 35.445312 9.832031 35.378906 10.074219 35.417969 10.308594 C 35.457031 10.519531 35.578125 10.644531 35.671875 10.726562 C 35.796875 10.835938 35.984375 10.925781 36.199219 10.910156 C 36.488281 10.886719 36.714844 10.640625 36.964844 10.347656 L 37.269531 9.992188 C 37.640625 9.5625 37.710938 9.480469 37.78125 9.386719 C 37.859375 9.285156 37.875 9.21875 37.796875 9.121094 C 37.78125 9.09375 37.734375 9.050781 37.703125 9.023438 C 37.671875 8.996094 37.660156 8.976562 37.675781 8.957031 C 37.695312 8.9375 37.71875 8.949219 37.757812 8.984375 C 37.902344 9.105469 38.074219 9.269531 38.078125 9.269531 C 38.109375 9.300781 38.296875 9.445312 38.40625 9.539062 C 38.449219 9.574219 38.464844 9.597656 38.445312 9.617188 C 38.429688 9.636719 38.40625 9.628906 38.371094 9.597656 C 38.339844 9.570312 38.324219 9.558594 38.28125 9.535156 C 38.195312 9.484375 38.128906 9.515625 38.039062 9.609375 C 37.957031 9.695312 37.886719 9.773438 37.515625 10.207031 L 37.257812 10.507812 C 36.984375 10.824219 36.667969 11.132812 36.253906 11.132812 C 35.902344 11.132812 35.671875 10.988281 35.488281 10.828125 C 35.339844 10.699219 35.074219 10.457031 35.027344 10.09375 C 34.992188 9.839844 35.066406 9.535156 35.417969 9.125 Z M 34.089844 6.582031 L 33.601562 6.3125 C 33.410156 6.210938 33.324219 6.179688 33.230469 6.222656 C 33.171875 6.253906 33.132812 6.28125 33.109375 6.304688 C 33.089844 6.324219 33.074219 6.332031 33.050781 6.320312 C 33.03125 6.308594 33.03125 6.289062 33.054688 6.253906 C 33.085938 6.203125 33.320312 5.945312 33.339844 5.921875 C 33.375 5.886719 33.394531 5.871094 33.414062 5.882812 C 33.441406 5.898438 33.453125 5.949219 33.53125 6.003906 C 33.617188 6.066406 33.738281 6.144531 33.84375 6.207031 L 35.121094 6.957031 C 35.222656 7.019531 35.300781 7.050781 35.351562 7.074219 C 35.40625 7.089844 35.4375 7.101562 35.449219 7.109375 C 35.472656 7.121094 35.464844 7.140625 35.4375 7.191406 C 35.398438 7.257812 35.257812 7.476562 35.207031 7.558594 C 35.183594 7.589844 35.167969 7.605469 35.148438 7.59375 C 35.121094 7.578125 35.125 7.558594 35.152344 7.507812 L 35.167969 7.472656 C 35.210938 7.382812 35.175781 7.242188 34.894531 7.066406 L 34.492188 6.820312 L 33.714844 8.140625 C 33.542969 8.4375 33.390625 8.695312 33.328125 8.84375 C 33.28125 8.9375 33.261719 9.019531 33.351562 9.089844 C 33.390625 9.121094 33.460938 9.171875 33.507812 9.199219 C 33.542969 9.21875 33.550781 9.238281 33.542969 9.253906 C 33.53125 9.277344 33.5 9.273438 33.464844 9.25 C 33.25 9.128906 33.050781 8.996094 32.960938 8.945312 C 32.886719 8.902344 32.679688 8.792969 32.550781 8.714844 C 32.507812 8.691406 32.492188 8.667969 32.503906 8.644531 C 32.515625 8.628906 32.53125 8.628906 32.570312 8.648438 C 32.621094 8.679688 32.660156 8.695312 32.695312 8.707031 C 32.765625 8.730469 32.828125 8.671875 32.894531 8.582031 C 32.988281 8.457031 33.136719 8.203125 33.3125 7.90625 Z M 14.554688 9.300781 C 14.492188 9.308594 14.472656 9.296875 14.429688 9.226562 C 14.328125 9.050781 14.222656 8.847656 14.199219 8.796875 C 14.171875 8.746094 14.160156 8.703125 14.1875 8.6875 C 14.214844 8.671875 14.234375 8.699219 14.25 8.722656 C 14.277344 8.765625 14.328125 8.824219 14.378906 8.871094 C 14.589844 9.066406 14.832031 9.042969 15.03125 8.921875 C 15.320312 8.75 15.34375 8.472656 15.242188 8.300781 C 15.148438 8.144531 15.015625 8.023438 14.621094 7.972656 L 14.40625 7.945312 C 13.890625 7.878906 13.632812 7.726562 13.476562 7.464844 C 13.269531 7.113281 13.414062 6.683594 13.859375 6.417969 C 14.070312 6.292969 14.222656 6.246094 14.320312 6.21875 C 14.355469 6.207031 14.375 6.207031 14.390625 6.230469 C 14.414062 6.273438 14.457031 6.371094 14.605469 6.625 C 14.648438 6.695312 14.652344 6.726562 14.628906 6.742188 C 14.605469 6.753906 14.582031 6.742188 14.558594 6.703125 C 14.542969 6.671875 14.46875 6.582031 14.351562 6.539062 C 14.265625 6.507812 14.117188 6.464844 13.90625 6.589844 C 13.667969 6.730469 13.605469 6.953125 13.71875 7.148438 C 13.808594 7.296875 13.949219 7.363281 14.335938 7.410156 L 14.464844 7.421875 C 15.027344 7.484375 15.296875 7.625 15.480469 7.929688 C 15.589844 8.117188 15.652344 8.382812 15.507812 8.667969 C 15.410156 8.867188 15.246094 9.003906 15.078125 9.105469 C 14.890625 9.214844 14.730469 9.277344 14.554688 9.300781 Z M 12.613281 9.324219 C 12.628906 9.3125 12.625 9.300781 12.613281 9.292969 L 11.777344 8.78125 C 11.761719 8.773438 11.75 8.761719 11.738281 8.765625 C 11.730469 8.773438 11.738281 8.792969 11.742188 8.808594 L 12.046875 9.742188 C 12.054688 9.753906 12.066406 9.761719 12.078125 9.753906 Z M 12.132812 9.945312 C 12.121094 9.957031 12.117188 9.96875 12.125 9.988281 L 12.300781 10.535156 C 12.332031 10.628906 12.371094 10.710938 12.402344 10.746094 C 12.441406 10.800781 12.5 10.816406 12.589844 10.746094 L 12.632812 10.710938 C 12.667969 10.683594 12.683594 10.679688 12.695312 10.699219 C 12.714844 10.722656 12.703125 10.742188 12.667969 10.765625 C 12.578125 10.839844 12.445312 10.933594 12.351562 11.003906 C 12.320312 11.03125 12.167969 11.167969 12.015625 11.289062 C 11.976562 11.320312 11.953125 11.328125 11.9375 11.304688 C 11.921875 11.285156 11.929688 11.273438 11.953125 11.253906 C 11.976562 11.230469 12.019531 11.195312 12.039062 11.175781 C 12.160156 11.050781 12.136719 10.90625 12.078125 10.714844 L 11.347656 8.292969 C 11.3125 8.179688 11.304688 8.132812 11.335938 8.109375 C 11.359375 8.089844 11.398438 8.101562 11.480469 8.144531 C 11.679688 8.25 13.101562 9.070312 13.640625 9.363281 C 13.964844 9.539062 14.082031 9.511719 14.152344 9.476562 C 14.203125 9.453125 14.25 9.421875 14.285156 9.390625 C 14.308594 9.375 14.324219 9.363281 14.34375 9.386719 C 14.359375 9.410156 14.339844 9.433594 14.230469 9.523438 C 14.125 9.605469 13.910156 9.777344 13.671875 9.957031 C 13.617188 9.996094 13.585938 10.023438 13.566406 10.003906 C 13.554688 9.984375 13.558594 9.96875 13.585938 9.945312 C 13.601562 9.921875 13.601562 9.878906 13.558594 9.855469 L 12.832031 9.421875 C 12.816406 9.414062 12.800781 9.414062 12.785156 9.425781 Z M 9.292969 10.40625 L 8.921875 10.820312 C 8.78125 10.984375 8.730469 11.0625 8.753906 11.15625 C 8.769531 11.222656 8.789062 11.269531 8.804688 11.292969 C 8.820312 11.320312 8.824219 11.339844 8.808594 11.355469 C 8.789062 11.375 8.773438 11.367188 8.742188 11.339844 C 8.699219 11.296875 8.5 11.011719 8.484375 10.984375 C 8.457031 10.945312 8.449219 10.921875 8.460938 10.90625 C 8.484375 10.882812 8.535156 10.882812 8.605469 10.816406 C 8.6875 10.746094 8.792969 10.648438 8.875 10.558594 L 9.894531 9.484375 C 9.976562 9.394531 10.023438 9.328125 10.054688 9.28125 C 10.085938 9.234375 10.101562 9.207031 10.113281 9.195312 C 10.128906 9.175781 10.148438 9.191406 10.191406 9.226562 C 10.246094 9.28125 10.425781 9.46875 10.496094 9.535156 C 10.523438 9.5625 10.53125 9.582031 10.519531 9.601562 C 10.496094 9.621094 10.476562 9.613281 10.433594 9.578125 L 10.402344 9.554688 C 10.328125 9.492188 10.179688 9.492188 9.949219 9.730469 L 9.617188 10.066406 L 10.730469 11.117188 C 10.980469 11.355469 11.195312 11.558594 11.324219 11.652344 C 11.410156 11.71875 11.484375 11.757812 11.570312 11.6875 C 11.613281 11.652344 11.675781 11.597656 11.714844 11.558594 C 11.742188 11.527344 11.761719 11.523438 11.777344 11.535156 C 11.796875 11.554688 11.78125 11.582031 11.753906 11.613281 C 11.585938 11.792969 11.414062 11.953125 11.34375 12.03125 C 11.285156 12.09375 11.132812 12.273438 11.027344 12.382812 C 10.996094 12.417969 10.96875 12.429688 10.949219 12.410156 C 10.9375 12.398438 10.9375 12.378906 10.96875 12.347656 C 11.007812 12.304688 11.03125 12.269531 11.050781 12.238281 C 11.089844 12.171875 11.046875 12.101562 10.976562 12.019531 C 10.875 11.894531 10.660156 11.695312 10.410156 11.457031 Z M 8.375 12.921875 C 7.914062 12.585938 7.828125 12.527344 7.726562 12.460938 C 7.621094 12.394531 7.546875 12.386719 7.484375 12.441406 C 7.449219 12.46875 7.417969 12.503906 7.394531 12.539062 C 7.371094 12.570312 7.351562 12.585938 7.328125 12.566406 C 7.308594 12.554688 7.320312 12.523438 7.355469 12.476562 C 7.4375 12.363281 7.585938 12.179688 7.652344 12.089844 C 7.707031 12.015625 7.828125 11.832031 7.910156 11.714844 C 7.941406 11.675781 7.964844 11.65625 7.980469 11.667969 C 8.007812 11.6875 8 11.710938 7.976562 11.738281 C 7.953125 11.769531 7.941406 11.796875 7.917969 11.835938 C 7.875 11.929688 7.910156 11.992188 8.011719 12.074219 C 8.101562 12.152344 8.1875 12.214844 8.644531 12.546875 L 9.179688 12.9375 C 9.472656 13.148438 9.710938 13.324219 9.847656 13.40625 C 9.9375 13.457031 10.007812 13.476562 10.085938 13.394531 C 10.121094 13.355469 10.175781 13.292969 10.210938 13.25 C 10.234375 13.214844 10.253906 13.207031 10.269531 13.21875 C 10.289062 13.234375 10.28125 13.265625 10.257812 13.296875 C 10.113281 13.496094 9.964844 13.679688 9.90625 13.761719 C 9.855469 13.832031 9.722656 14.027344 9.636719 14.148438 C 9.605469 14.1875 9.582031 14.203125 9.5625 14.1875 C 9.546875 14.175781 9.546875 14.160156 9.574219 14.121094 C 9.605469 14.078125 9.625 14.035156 9.640625 14.003906 C 9.671875 13.933594 9.632812 13.878906 9.550781 13.808594 C 9.4375 13.699219 9.199219 13.523438 8.90625 13.3125 Z M 8.457031 16.011719 C 8.40625 16.050781 8.386719 16.050781 8.3125 16.011719 C 8.132812 15.910156 7.945312 15.785156 7.894531 15.753906 C 7.847656 15.722656 7.820312 15.691406 7.832031 15.667969 C 7.851562 15.636719 7.882812 15.648438 7.90625 15.664062 C 7.949219 15.6875 8.023438 15.714844 8.089844 15.730469 C 8.371094 15.796875 8.570312 15.652344 8.683594 15.453125 C 8.847656 15.160156 8.730469 14.902344 8.558594 14.804688 C 8.398438 14.714844 8.222656 14.679688 7.859375 14.828125 L 7.65625 14.910156 C 7.171875 15.109375 6.875 15.105469 6.613281 14.957031 C 6.253906 14.75 6.167969 14.308594 6.421875 13.855469 C 6.542969 13.644531 6.652344 13.523438 6.722656 13.453125 C 6.746094 13.429688 6.765625 13.417969 6.789062 13.429688 C 6.832031 13.453125 6.917969 13.519531 7.171875 13.664062 C 7.242188 13.707031 7.265625 13.730469 7.25 13.753906 C 7.238281 13.777344 7.210938 13.777344 7.171875 13.753906 C 7.144531 13.738281 7.03125 13.699219 6.910156 13.71875 C 6.820312 13.730469 6.667969 13.769531 6.550781 13.980469 C 6.414062 14.222656 6.46875 14.449219 6.664062 14.558594 C 6.8125 14.644531 6.96875 14.632812 7.328125 14.480469 L 7.449219 14.429688 C 7.96875 14.203125 8.269531 14.191406 8.582031 14.367188 C 8.769531 14.472656 8.953125 14.671875 8.972656 14.992188 C 8.984375 15.214844 8.910156 15.414062 8.8125 15.585938 C 8.707031 15.773438 8.601562 15.90625 8.457031 16.011719 Z M 6.257812 17.566406 C 6.292969 17.582031 6.3125 17.582031 6.332031 17.5625 C 6.382812 17.496094 6.433594 17.398438 6.46875 17.308594 C 6.523438 17.167969 6.527344 17.117188 6.503906 17.039062 C 6.46875 16.90625 6.347656 16.742188 6.0625 16.628906 C 5.566406 16.4375 5.296875 16.710938 5.21875 16.917969 C 5.183594 17.003906 5.164062 17.070312 5.160156 17.109375 C 5.15625 17.136719 5.167969 17.148438 5.195312 17.15625 Z M 5.820312 17.875 C 5.292969 17.667969 5.195312 17.628906 5.078125 17.59375 C 4.957031 17.554688 4.890625 17.5625 4.824219 17.667969 C 4.804688 17.691406 4.777344 17.75 4.757812 17.800781 C 4.746094 17.835938 4.730469 17.855469 4.707031 17.847656 C 4.679688 17.835938 4.683594 17.808594 4.703125 17.757812 C 4.773438 17.574219 4.871094 17.355469 4.898438 17.285156 C 4.945312 17.164062 5.035156 16.894531 5.078125 16.789062 C 5.164062 16.566406 5.273438 16.34375 5.476562 16.203125 C 5.582031 16.132812 5.8125 16.0625 6.046875 16.152344 C 6.304688 16.25 6.5 16.449219 6.648438 16.914062 C 7.160156 16.753906 7.5625 16.632812 7.859375 16.511719 C 8.136719 16.394531 8.21875 16.261719 8.25 16.210938 C 8.269531 16.175781 8.285156 16.148438 8.296875 16.117188 C 8.308594 16.089844 8.324219 16.082031 8.339844 16.089844 C 8.367188 16.097656 8.367188 16.125 8.351562 16.167969 L 8.222656 16.5 C 8.144531 16.695312 8.09375 16.773438 8.011719 16.847656 C 7.875 16.964844 7.65625 17.035156 7.3125 17.125 C 7.066406 17.191406 6.769531 17.261719 6.699219 17.285156 C 6.671875 17.296875 6.660156 17.316406 6.648438 17.339844 L 6.523438 17.640625 C 6.519531 17.65625 6.519531 17.671875 6.542969 17.679688 L 6.589844 17.699219 C 6.917969 17.824219 7.191406 17.929688 7.34375 17.96875 C 7.449219 17.996094 7.535156 18.007812 7.589844 17.90625 C 7.617188 17.855469 7.652344 17.785156 7.667969 17.742188 C 7.679688 17.714844 7.695312 17.703125 7.714844 17.710938 C 7.738281 17.71875 7.738281 17.75 7.722656 17.792969 C 7.644531 17.996094 7.53125 18.25 7.511719 18.300781 C 7.488281 18.367188 7.414062 18.59375 7.359375 18.730469 C 7.339844 18.777344 7.320312 18.796875 7.296875 18.789062 C 7.28125 18.78125 7.273438 18.765625 7.289062 18.722656 C 7.3125 18.667969 7.320312 18.625 7.324219 18.589844 C 7.335938 18.515625 7.269531 18.46875 7.171875 18.414062 C 7.03125 18.339844 6.757812 18.234375 6.4375 18.109375 Z M 5.128906 20.566406 C 4.574219 20.445312 4.46875 20.425781 4.351562 20.40625 C 4.226562 20.386719 4.160156 20.402344 4.109375 20.519531 C 4.09375 20.546875 4.078125 20.609375 4.066406 20.660156 C 4.058594 20.699219 4.046875 20.71875 4.019531 20.714844 C 3.996094 20.707031 3.992188 20.679688 4.007812 20.625 C 4.027344 20.527344 4.054688 20.421875 4.074219 20.332031 C 4.097656 20.238281 4.117188 20.152344 4.128906 20.101562 C 4.15625 19.984375 4.3125 19.257812 4.324219 19.1875 C 4.332031 19.117188 4.335938 19.054688 4.335938 19.023438 C 4.335938 19.007812 4.328125 18.980469 4.332031 18.964844 C 4.335938 18.945312 4.351562 18.945312 4.371094 18.949219 C 4.394531 18.953125 4.4375 18.980469 4.601562 19.027344 C 4.636719 19.039062 4.796875 19.082031 4.839844 19.097656 C 4.855469 19.105469 4.875 19.117188 4.871094 19.144531 C 4.867188 19.167969 4.847656 19.171875 4.8125 19.167969 C 4.789062 19.160156 4.726562 19.152344 4.675781 19.160156 C 4.605469 19.171875 4.554688 19.199219 4.492188 19.375 C 4.472656 19.4375 4.382812 19.820312 4.367188 19.894531 C 4.363281 19.910156 4.371094 19.921875 4.398438 19.925781 L 5.324219 20.125 C 5.347656 20.128906 5.363281 20.128906 5.367188 20.109375 C 5.386719 20.027344 5.476562 19.605469 5.488281 19.519531 C 5.5 19.433594 5.5 19.375 5.46875 19.335938 C 5.445312 19.300781 5.429688 19.285156 5.433594 19.265625 C 5.4375 19.25 5.449219 19.242188 5.46875 19.246094 C 5.492188 19.25 5.546875 19.277344 5.730469 19.332031 C 5.800781 19.351562 5.945312 19.394531 5.972656 19.398438 C 6 19.40625 6.042969 19.414062 6.035156 19.449219 C 6.027344 19.472656 6.011719 19.476562 5.992188 19.472656 C 5.957031 19.46875 5.910156 19.460938 5.859375 19.460938 C 5.78125 19.460938 5.71875 19.5 5.671875 19.632812 C 5.652344 19.703125 5.570312 20.0625 5.550781 20.152344 C 5.546875 20.167969 5.5625 20.175781 5.582031 20.179688 L 5.871094 20.242188 C 5.996094 20.269531 6.332031 20.34375 6.4375 20.363281 C 6.691406 20.410156 6.757812 20.363281 6.839844 19.992188 C 6.859375 19.898438 6.894531 19.742188 6.871094 19.640625 C 6.847656 19.535156 6.777344 19.472656 6.632812 19.414062 C 6.59375 19.398438 6.582031 19.390625 6.585938 19.363281 C 6.59375 19.335938 6.625 19.339844 6.660156 19.347656 C 6.742188 19.367188 6.988281 19.449219 7.054688 19.484375 C 7.144531 19.53125 7.136719 19.5625 7.109375 19.703125 C 7.050781 19.976562 7 20.175781 6.960938 20.332031 C 6.921875 20.488281 6.894531 20.601562 6.867188 20.710938 C 6.859375 20.75 6.84375 20.832031 6.828125 20.917969 C 6.808594 21.003906 6.796875 21.101562 6.78125 21.171875 C 6.769531 21.222656 6.753906 21.242188 6.730469 21.238281 C 6.710938 21.234375 6.703125 21.21875 6.710938 21.171875 C 6.722656 21.117188 6.726562 21.074219 6.726562 21.039062 C 6.726562 20.960938 6.648438 20.925781 6.546875 20.890625 C 6.398438 20.839844 6.109375 20.777344 5.773438 20.703125 Z M 4.070312 23.875 C 3.859375 23.949219 3.816406 24.007812 3.769531 24.140625 C 3.75 24.195312 3.746094 24.253906 3.746094 24.285156 C 3.742188 24.320312 3.730469 24.328125 3.707031 24.328125 C 3.679688 24.328125 3.675781 24.285156 3.679688 24.230469 C 3.695312 24.03125 3.71875 23.820312 3.726562 23.6875 C 3.734375 23.59375 3.734375 23.414062 3.746094 23.230469 C 3.75 23.183594 3.757812 23.144531 3.785156 23.144531 C 3.808594 23.148438 3.816406 23.167969 3.8125 23.203125 C 3.8125 23.261719 3.8125 23.320312 3.832031 23.351562 C 3.847656 23.378906 3.875 23.390625 3.90625 23.394531 C 3.957031 23.394531 4.0625 23.367188 4.199219 23.324219 L 5.9375 22.792969 L 5.9375 22.777344 C 5.535156 22.589844 4.363281 22.027344 4.125 21.921875 C 4.078125 21.902344 4.023438 21.882812 3.988281 21.878906 C 3.957031 21.878906 3.925781 21.890625 3.914062 21.925781 C 3.898438 21.96875 3.890625 22.023438 3.886719 22.070312 C 3.882812 22.105469 3.878906 22.136719 3.851562 22.132812 C 3.824219 22.132812 3.816406 22.097656 3.820312 22.027344 C 3.832031 21.839844 3.855469 21.683594 3.859375 21.636719 C 3.863281 21.574219 3.863281 21.394531 3.867188 21.285156 C 3.871094 21.234375 3.882812 21.207031 3.90625 21.207031 C 3.933594 21.210938 3.941406 21.230469 3.9375 21.269531 C 3.9375 21.308594 3.929688 21.386719 3.96875 21.457031 C 4 21.507812 4.0625 21.566406 4.292969 21.683594 C 4.636719 21.851562 4.832031 21.964844 5.277344 22.195312 C 5.804688 22.46875 6.203125 22.671875 6.382812 22.765625 C 6.59375 22.875 6.652344 22.902344 6.648438 22.953125 C 6.644531 23 6.59375 23.019531 6.414062 23.082031 Z M 4.871094 25.554688 C 4.304688 25.589844 4.199219 25.597656 4.082031 25.613281 C 3.953125 25.628906 3.894531 25.667969 3.878906 25.75 C 3.871094 25.792969 3.871094 25.84375 3.875 25.886719 C 3.875 25.925781 3.867188 25.945312 3.839844 25.949219 C 3.816406 25.949219 3.808594 25.921875 3.804688 25.863281 C 3.792969 25.71875 3.792969 25.484375 3.785156 25.375 C 3.777344 25.28125 3.753906 25.0625 3.742188 24.921875 C 3.742188 24.871094 3.746094 24.839844 3.769531 24.839844 C 3.800781 24.839844 3.808594 24.859375 3.8125 24.898438 C 3.8125 24.933594 3.820312 24.964844 3.828125 25.007812 C 3.855469 25.109375 3.917969 25.136719 4.050781 25.132812 C 4.167969 25.132812 4.273438 25.128906 4.84375 25.089844 L 5.5 25.050781 C 5.863281 25.027344 6.15625 25.007812 6.316406 24.984375 C 6.414062 24.964844 6.480469 24.933594 6.488281 24.820312 C 6.492188 24.769531 6.496094 24.6875 6.492188 24.632812 C 6.488281 24.589844 6.5 24.570312 6.519531 24.570312 C 6.542969 24.566406 6.558594 24.597656 6.558594 24.636719 C 6.574219 24.882812 6.578125 25.121094 6.585938 25.222656 C 6.589844 25.308594 6.617188 25.542969 6.625 25.691406 C 6.628906 25.738281 6.621094 25.765625 6.59375 25.765625 C 6.574219 25.769531 6.5625 25.753906 6.558594 25.710938 C 6.554688 25.652344 6.546875 25.609375 6.535156 25.578125 C 6.515625 25.503906 6.453125 25.484375 6.34375 25.480469 C 6.183594 25.472656 5.890625 25.488281 5.527344 25.511719 Z M 6.675781 28.898438 C 6.957031 28.828125 7.042969 28.761719 7.054688 28.679688 C 7.0625 28.613281 7.050781 28.542969 7.039062 28.484375 C 7.027344 28.445312 7.03125 28.421875 7.050781 28.417969 C 7.082031 28.410156 7.097656 28.441406 7.105469 28.492188 C 7.160156 28.730469 7.179688 28.878906 7.195312 28.949219 C 7.203125 28.980469 7.25 29.152344 7.292969 29.339844 C 7.304688 29.386719 7.308594 29.421875 7.273438 29.429688 C 7.253906 29.433594 7.238281 29.414062 7.230469 29.378906 C 7.222656 29.328125 7.203125 29.265625 7.179688 29.21875 C 7.128906 29.128906 7.019531 29.136719 6.699219 29.203125 L 4.53125 29.644531 C 4.457031 29.660156 4.40625 29.660156 4.394531 29.625 C 4.386719 29.585938 4.425781 29.542969 4.480469 29.464844 C 4.519531 29.410156 4.992188 28.722656 5.402344 28.074219 C 5.597656 27.773438 6.015625 27.164062 6.0625 27.089844 L 6.054688 27.070312 L 4.425781 27.46875 C 4.203125 27.519531 4.140625 27.566406 4.125 27.664062 C 4.113281 27.722656 4.132812 27.808594 4.144531 27.863281 C 4.152344 27.90625 4.144531 27.921875 4.125 27.925781 C 4.09375 27.933594 4.082031 27.894531 4.070312 27.839844 C 4.027344 27.648438 4 27.472656 3.984375 27.394531 C 3.976562 27.355469 3.933594 27.21875 3.894531 27.039062 C 3.882812 26.992188 3.878906 26.953125 3.910156 26.949219 C 3.929688 26.945312 3.945312 26.964844 3.957031 27.007812 C 3.964844 27.042969 3.96875 27.074219 3.992188 27.113281 C 4.042969 27.210938 4.125 27.222656 4.332031 27.179688 L 6.644531 26.714844 C 6.726562 26.699219 6.761719 26.707031 6.769531 26.738281 C 6.777344 26.777344 6.746094 26.832031 6.714844 26.878906 C 6.546875 27.15625 6.171875 27.730469 5.878906 28.191406 C 5.570312 28.679688 5.203125 29.183594 5.148438 29.265625 L 5.148438 29.273438 Z M 6.820312 32.71875 C 6.296875 32.941406 6.199219 32.984375 6.09375 33.039062 C 5.980469 33.09375 5.9375 33.148438 5.960938 33.269531 C 5.964844 33.300781 5.988281 33.359375 6.007812 33.410156 C 6.023438 33.445312 6.023438 33.46875 6 33.480469 C 5.976562 33.492188 5.960938 33.46875 5.9375 33.417969 C 5.859375 33.234375 5.777344 33.015625 5.734375 32.910156 C 5.699219 32.828125 5.59375 32.617188 5.542969 32.492188 C 5.519531 32.441406 5.515625 32.414062 5.539062 32.40625 C 5.5625 32.394531 5.582031 32.410156 5.59375 32.445312 C 5.609375 32.484375 5.625 32.503906 5.648438 32.542969 C 5.703125 32.628906 5.773438 32.628906 5.898438 32.585938 C 6.011719 32.542969 6.105469 32.503906 6.628906 32.28125 L 7.109375 32.074219 C 7.609375 31.859375 7.777344 31.667969 7.839844 31.441406 C 7.902344 31.234375 7.847656 31.070312 7.796875 30.953125 C 7.734375 30.800781 7.605469 30.636719 7.410156 30.558594 C 7.140625 30.449219 6.824219 30.570312 6.472656 30.722656 L 6.042969 30.90625 C 5.519531 31.132812 5.421875 31.171875 5.316406 31.226562 C 5.203125 31.285156 5.160156 31.335938 5.183594 31.457031 C 5.1875 31.488281 5.210938 31.550781 5.226562 31.585938 C 5.242188 31.625 5.242188 31.648438 5.21875 31.660156 C 5.195312 31.667969 5.179688 31.648438 5.15625 31.597656 C 5.082031 31.421875 5 31.203125 5 31.199219 C 4.980469 31.15625 4.878906 30.945312 4.820312 30.8125 C 4.800781 30.765625 4.796875 30.738281 4.820312 30.726562 C 4.84375 30.71875 4.859375 30.734375 4.878906 30.777344 C 4.894531 30.8125 4.90625 30.832031 4.929688 30.871094 C 4.988281 30.957031 5.058594 30.960938 5.183594 30.914062 C 5.292969 30.875 5.390625 30.832031 5.914062 30.609375 L 6.28125 30.453125 C 6.664062 30.289062 7.085938 30.152344 7.457031 30.335938 C 7.769531 30.488281 7.914062 30.71875 8.011719 30.941406 C 8.085938 31.125 8.21875 31.460938 8.101562 31.808594 C 8.015625 32.050781 7.820312 32.289062 7.320312 32.503906 L 6.820312 32.71875 "/>
</g>
</g>
</svg>
